<?xml version="1.0" encoding="UTF-8" standalone="no"?>
<!-- Created with Inkscape (http://www.inkscape.org/) -->

<svg
   version="1.1"
   id="svg1"
   width="1536"
   height="1024"
   viewBox="0 0 1536 1024"
   sodipodi:docname="ferresuur.svg"
   inkscape:version="1.4.4 (dcaf3e7d9e, 2026-05-05)"
   xmlns:inkscape="http://www.inkscape.org/namespaces/inkscape"
   xmlns:sodipodi="http://sodipodi.sourceforge.net/DTD/sodipodi-0.dtd"
   xmlns="http://www.w3.org/2000/svg"
   xmlns:svg="http://www.w3.org/2000/svg">
  <defs
     id="defs1" />
  <sodipodi:namedview
     id="namedview1"
     pagecolor="#ffffff"
     bordercolor="#000000"
     borderopacity="0.25"
     inkscape:showpageshadow="2"
     inkscape:pageopacity="0.0"
     inkscape:pagecheckerboard="0"
     inkscape:deskcolor="#d1d1d1"
     inkscape:zoom="0.49927416"
     inkscape:cx="860.2488"
     inkscape:cy="424.61641"
     inkscape:window-width="1920"
     inkscape:window-height="1011"
     inkscape:window-x="0"
     inkscape:window-y="0"
     inkscape:window-maximized="1"
     inkscape:current-layer="g1" />
  <g
     inkscape:groupmode="layer"
     inkscape:label="Image"
     id="g1">
    <rect
       style="fill:#000080;stroke-width:15.1181"
       id="rect1"
       width="1217.5374"
       height="316.52087"
       x="159.23135"
       y="79.615669" />
    <path
       style="fill:#000000"
       d="m 796.93639,372.12972 c -20.07722,-1.99035 -37.01194,-10.17279 -41.88412,-20.23738 -2.5943,-5.35911 -2.87342,-15.98734 -0.5652,-21.52149 2.05908,-4.9368 7.00189,-9.91511 11.22981,-11.31045 4.343,-1.43332 9.0596,-0.67935 22.21951,3.55189 15.17047,4.87769 21.56985,5.82421 39.5,5.84237 12.51621,0.0127 18.50397,-0.47053 27.5,-2.21923 23.29475,-4.52816 41.50993,-12.24891 51.2885,-21.7393 4.37321,-4.24433 5.7115,-6.95373 5.7115,-11.5631 0,-6.38015 -12.24538,-14.25735 -34.87785,-22.4362 -44.90783,-16.22866 -57.80936,-21.94944 -71.2162,-31.57863 -9.611,-6.9029 -13.99034,-11.64862 -18.01369,-19.52078 -2.78253,-5.44435 -3.25632,-7.51918 -3.65365,-16 -0.3832,-8.17944 -0.10562,-10.78838 1.72835,-16.24445 3.46116,-10.29697 10.38521,-20.49523 21.14641,-31.14603 22.02816,-21.80218 55.1815,-38.311 90.48449,-45.05707 9.87241,-1.88653 15.14231,-2.26559 30.90214,-2.22279 16.47328,0.0447 20.19687,0.35864 27.99999,2.36048 23.1784,5.94626 36.41992,17.14868 39.37952,33.31541 1.9563,10.68652 -1.962,22.71676 -9.15182,28.09806 -7.2466,5.42388 -16.7783,8.16709 -24.1956,6.96344 -3.4492,-0.55974 -3.5322,-0.68153 -3.5377,-5.19234 -0.01,-7.64861 -1.83,-12.22846 -6.86652,-17.27122 -5.04314,-5.04942 -11.08526,-7.42396 -22.59807,-8.88101 -18.83324,-2.3835 -47.07761,3.08691 -63.5298,12.30456 -20.6516,11.57044 -29.92503,21.72563 -29.97804,32.82847 -0.0244,5.1019 3.43902,10.97115 8.63912,14.64038 6.78574,4.78807 21.55421,10.90232 46.83892,19.39163 54.96621,18.45484 74.95159,35.08299 73.15729,60.86803 -1.0262,14.74673 -6.9789,26.34217 -20.37462,39.68834 -12.11873,12.07391 -29.01281,22.26702 -50.92134,30.72361 -28.96302,11.17958 -66.75604,16.49971 -96.36133,13.5648 z m 50,-3.34741 c 15.12131,-2.40197 15.85792,-2.56247 28.82021,-6.27966 42.44928,-12.17316 72.58666,-33.15435 83.28568,-57.98222 3.1708,-7.35805 3.3904,-8.5797 3.3922,-18.86746 0,-9.97395 -0.2451,-11.46639 -2.6462,-16 -2.8114,-5.30853 -11.18711,-14.18594 -12.94946,-13.72522 -0.5781,0.15112 -0.79438,-0.14058 -0.48063,-0.64824 1.10297,-1.78466 -23.57686,-15.66475 -26.11874,-14.68934 -0.77381,0.29694 -1.17255,0.16065 -0.88608,-0.30286 0.63097,-1.02095 -7.01647,-4.05666 -31.41698,-12.47123 -41.0965,-14.17221 -51.44173,-20.51673 -53.39753,-32.74766 -1.65413,-10.34438 6.94661,-21.89083 23.89753,-32.08231 19.43632,-11.68579 37.89074,-16.83266 60.35566,-16.83297 24.71342,-3.4e-4 38.01243,6.8316 41.07233,21.09969 0.5896,2.74922 1.072,6.28242 1.072,7.85155 v 2.85298 l 7.1855,-0.3979 c 7.6993,-0.42636 13.2342,-2.62112 18.0289,-7.14912 1.493,-1.40988 2.436,-3.01409 2.0955,-3.5649 -0.3541,-0.57306 -0.1149,-0.68999 0.5592,-0.27334 2.32452,1.43656 5.60272,-8.19025 5.59132,-16.41913 -0.011,-7.72219 -1.8978,-14.46576 -3.731,-13.33278 -0.6155,0.38044 -0.7368,0.15375 -0.2977,-0.55669 1.3591,-2.19903 -7.49462,-12.80772 -9.60202,-11.5053 -0.4836,0.29889 -0.7556,-0.0525 -0.6045,-0.7809 0.4106,-1.97895 -15.5111,-9.42525 -24.2252,-11.32968 -10.05805,-2.19815 -36.18484,-3.05335 -47.56102,-1.55681 -32.56387,4.28382 -63.99366,16.74537 -87.43897,34.66855 -5.69908,4.35676 -19,16.68791 -19,17.61471 0,0.29014 -1.53263,2.20075 -3.40584,4.24582 -5.27195,5.75563 -11.18523,18.18 -12.57547,26.42226 -2.10678,12.49043 1.41116,25.04645 9.53779,34.04165 5.29883,5.86518 14.14453,12.36341 15.64847,11.4957 0.71228,-0.41095 0.96041,-0.3779 0.55141,0.0734 -2.28896,2.52595 17.23011,11.27202 63.53179,28.4672 26.52218,9.84961 36.84221,16.28641 38.0506,23.73288 2.98976,18.42374 -40.89884,38.19156 -85.33875,38.43734 -18.08697,0.10004 -29.47327,-1.74411 -44,-7.1263 -7.91438,-2.93231 -14.77125,-3.55134 -19.13607,-1.72761 -9.86037,4.11993 -13.71919,20.46228 -7.38412,31.27226 1.70011,2.90103 3.23345,4.40475 4.30754,4.22436 0.92008,-0.15453 1.67783,0.37811 1.69021,1.18807 0.051,3.33671 17.96609,10.41128 30.52244,12.05315 9.38248,1.22685 41.88788,0.37314 53,-1.39199 z M 996.0511,362.0879 c -10.63322,-1.89041 -18.91142,-8.28057 -24.12162,-18.61991 -1.9786,-3.92635 -2.489,-6.66065 -2.7655,-14.81502 -0.3368,-9.93004 1.5986,-23.38222 12.913,-89.75 l 2.1736,-12.75 h 21.34292 c 16.4092,0 21.3422,0.28896 21.34,1.25 0,0.6875 -0.9044,6.65 -2.0063,13.25 -1.1018,6.6 -4.289,26.38173 -7.0825,43.9594 -4.8402,30.45651 -5.004,32.11674 -3.4835,35.30528 2.2657,4.75107 7.1856,6.59022 16.0702,6.00725 7.5456,-0.4951 16.7087,-4.25454 17.8932,-7.3412 0.3508,-0.91412 4.0106,-21.68386 8.1329,-46.15496 4.1223,-24.4711 7.743,-44.89405 8.046,-45.38434 0.303,-0.49029 10.4244,-0.89143 22.4919,-0.89143 h 21.941 v 2.50851 c 0,1.37968 -1.1065,9.14218 -2.4588,17.25 -1.3523,8.10782 -4.9968,30.26649 -8.0988,49.24149 -3.1021,18.975 -6.8396,41.7 -8.3056,50.5 l -2.6656,16 h -19.4856 -19.4856 l 0.2359,-6.21565 0.2358,-6.21564 -6.2358,3.97547 c -8.7697,5.59086 -19.3296,8.73796 -31.3666,9.348 -5.4281,0.2751 -12.2927,0.0693 -15.2546,-0.45725 z m 24.7623,-1.9116 c 7.6985,-1.46 19.5935,-6.74671 25.2628,-11.22807 2.7612,-2.18262 5.225,-3.76383 5.475,-3.5138 0.25,0.25002 0,2.42648 -0.5557,4.83656 -0.5556,2.41009 -1.0212,5.63599 -1.0347,7.16867 l -0.024,2.78668 18.0016,-0.11907 c 17.6162,-0.11651 18.0112,-0.16547 18.4485,-2.28668 1.044,-5.06419 21.3445,-129.1869 21.1604,-129.38027 -0.1114,-0.11696 -9.6214,-0.26452 -21.1334,-0.32792 l -20.931,-0.11528 -4.2216,25.32793 c -10.3154,61.88886 -11.0735,65.89304 -12.8453,67.85091 -2.0153,2.2269 -11.2675,5.92088 -15.2667,6.09532 l -2.7125,0.11832 3,0.76337 c 2.1815,0.55509 2.4268,0.79565 0.8992,0.88169 -1.1554,0.0651 -3.4054,-0.29655 -5,-0.80361 -4.8261,-1.53463 -12.4586,-1.99301 -11.7091,-0.7032 0.3595,0.61882 -0.3058,0.28404 -1.4785,-0.74395 -1.1727,-1.02799 -2.0545,-2.15299 -1.9595,-2.5 0.095,-0.34701 -0.4136,-1.68999 -1.1302,-2.9844 -1.2804,-2.31266 -1.1735,-16.65939 0.1502,-20.14653 0.3131,-0.825 1.5138,-7.575 2.6682,-15 2.1841,-14.04844 4.0537,-25.54878 6.5028,-40 0.7922,-4.675 1.6976,-10.24001 2.0118,-12.36669 0.3142,-2.12668 0.8057,-4.24602 1.0923,-4.70964 0.2865,-0.46362 -8.5003,-0.97361 -19.5262,-1.13331 -17.12672,-0.24806 -20.11152,-0.0718 -20.48892,1.20964 -0.8408,2.85493 -13.1717,77.64047 -14.0975,85.5 -0.2592,2.2 -0.6896,5.66449 -0.9566,7.69887 -0.7026,5.35519 1.2134,17.29156 3.4667,21.5965 4.0376,7.71391 10.5097,12.94506 19.55532,15.80581 4.8377,1.52997 20.2799,1.76809 27.377,0.42215 z m -838.45171,0.6426 c -0.28156,-0.73374 2.61788,-10.29624 6.4432,-21.25 19.15123,-54.83935 22.56977,-64.53576 29.93777,-84.91593 8.48693,-23.47515 16.40143,-44.89208 17.63982,-47.734 0.70521,-1.61834 -1.09501,-1.75175 -26.98679,-2 -24.11999,-0.23127 -27.87371,-0.47429 -28.7481,-1.86122 -3.52863,-5.59702 7.09769,-15.46741 20.46121,-19.00565 2.38018,-0.63019 13.5051,-1.42781 24.72205,-1.77247 l 20.39445,-0.62666 3.76639,-9.24608 c 2.07151,-5.08535 3.41138,-9.4655 2.97748,-9.73366 -0.43391,-0.26817 -6.80628,-0.28355 -14.16085,-0.0342 -18.58698,0.63021 -30.7062,-0.30788 -31.86131,-2.46622 -1.20835,-2.25782 2.72562,-10.65753 6.78647,-14.49032 4.62088,-4.36137 9.80675,-5.41231 30.39122,-6.15891 l 18.68831,-0.67782 4.61036,-9.5964 c 6.20027,-12.90578 10.14538,-18.51261 14.9736,-21.28061 3.97368,-2.2781 4.50323,-2.31452 32.53942,-2.23752 24.15066,0.0663 30.86543,0.42528 44,2.3521 17.33737,2.54336 45.09912,8.8748 52.06418,11.87393 8.2477,3.55143 12.16854,11.15531 8.90064,17.26144 -1.00359,1.87522 -2.66264,1.93427 -54.34813,1.93427 h -53.31294 l -1.62418,3.75 c -0.8933,2.0625 -4.29373,10.95 -7.55651,19.75 -3.26278,8.8 -6.24839,16.7875 -6.63468,17.75 -0.66307,1.65211 1.98172,1.75 47.28219,1.75 41.24673,0 48.15783,0.2088 49.21865,1.48701 2.92656,3.52629 -2.25865,10.36354 -11.16251,14.71896 -11.92011,5.83084 -14.08096,6.08631 -56.78849,6.71403 l -39.46179,0.58 -8.80929,24.5 c -23.93751,66.57387 -34.4548,96.01918 -40.00419,112 -3.34232,9.625 -6.7673,18.0625 -7.61107,18.75 -2.29104,1.86671 -46.00818,1.78806 -46.72658,-0.0841 z m 3.94176,-1.91593 c -0.57516,-0.95736 -0.41339,-0.98604 0.69098,-0.1225 2.15975,1.68875 40.36319,1.81098 41.63482,0.1332 0.52554,-0.69338 4.1658,-10.4857 8.08947,-21.7607 3.92367,-11.275 9.20382,-26.125 11.73367,-33 2.52985,-6.875 6.54991,-18.125 8.93347,-25 2.38356,-6.875 8.93462,-25.1 14.55793,-40.5 5.6233,-15.4 10.62933,-29.41216 11.1245,-31.13812 l 0.90033,-3.13813 38.73388,-0.52246 c 41.35352,-0.5578 43.02025,-0.73897 56.33177,-6.12338 7.73118,-3.12721 13.23535,-8.18889 12.73675,-11.71283 l -0.33463,-2.36508 -48.81436,-0.25955 -48.81435,-0.25955 0.67204,-2.24045 c 0.82061,-2.73574 10.53249,-27.87698 14.096,-36.49045 l 2.58571,-6.25 h 52.38748 c 51.05415,0 52.43838,-0.0509 54.38748,-2 2.52587,-2.52587 2.51883,-4.63675 -0.0294,-8.81638 -1.32727,-2.17699 -3.81683,-4.10741 -7.24626,-5.61878 -13.72699,-6.04959 -58.73371,-14.07068 -82.37343,-14.68059 -22.59625,-0.58299 -37.73389,-0.22859 -42.04838,0.98443 -6.18281,1.7383 -9.46092,5.71109 -16.48696,19.98075 l -6.31557,12.8267 -15.5,0.18999 c -8.525,0.10449 -16.9625,0.40236 -18.75,0.66193 -1.7875,0.25957 -4.83462,0.71915 -6.77138,1.02127 -4.27704,0.66721 -9.90882,5.41347 -12.53753,10.56616 -2.35475,4.61569 -2.44662,6.47655 -0.3593,7.27753 0.86998,0.33385 11.66815,0.60699 23.99592,0.60699 h 22.41414 l -2.06925,5.25 c -1.13808,2.8875 -2.76875,7.275 -3.62372,9.75 -2.48132,7.18308 -2.33793,7.12702 -19.42135,7.59273 -21.08853,0.57489 -25.39154,1.01336 -32.99671,3.36236 -6.89724,2.13034 -15.17601,8.2417 -16.13562,11.91125 -1.18162,4.51855 -0.45573,4.63366 29.2209,4.63366 15.41916,0 28.03462,0.35195 28.03437,0.78212 -2.6e-4,0.43016 -0.72238,2.45516 -1.60471,4.5 -2.79195,6.47047 -25.74322,69.85799 -35.56258,98.21788 -2.18998,6.325 -5.5441,16 -7.45361,21.5 -6.39465,18.41867 -7.43425,21.91512 -6.91692,23.26327 0.28294,0.73733 0.1176,1.09534 -0.36743,0.79558 -0.48503,-0.29977 -1.15296,0.53506 -1.48428,1.85516 -0.33133,1.3201 -0.87747,3.11699 -1.21366,3.99309 -0.40845,1.06439 -0.0585,1.5929 1.05475,1.5929 1.06666,0 1.39584,-0.44969 0.91503,-1.25 z m 137.13281,2.30283 c -25.09068,-5.41455 -41.48217,-20.32426 -46.05292,-41.88975 -7.44421,-35.12293 15.33278,-74.37676 51.55305,-88.84644 13.6467,-5.45174 20.40333,-6.58833 36.26286,-6.10008 15.3288,0.4719 23.64058,2.53524 32.31558,8.0221 8.56248,5.4157 16.2242,16.06254 18.86956,26.22144 2.6079,10.01505 1.26757,32.52145 -2.4601,41.30921 l -0.96262,2.26932 -47.0129,-0.26932 -47.01291,-0.26931 2.7e-4,2.5066 c 0.001,12.75404 10.30088,21.9864 24.50026,21.96167 8.48303,-0.0148 13.92848,-2.22256 19.59255,-7.94351 l 3.98474,-4.02476 h 19.96135 c 16.15797,0 19.96136,0.25898 19.96136,1.35923 0,1.93708 -5.6211,12.28365 -9.75277,17.9516 -7.71347,10.58157 -24.11966,21.72113 -38.06427,25.84509 -7.50522,2.21958 -28.91401,3.35767 -35.68309,1.89691 z m 33.75074,-3.46449 c 13.81292,-3.50394 23.09304,-8.91263 33.75246,-19.67181 5.13531,-5.18337 13.99693,-18.89183 13.99693,-21.6525 0,-0.63464 -6.72739,-0.82001 -18.75,-0.51666 l -18.75,0.4731 -4.62383,4.31182 c -2.54311,2.3715 -6.49664,4.87293 -8.78563,5.55873 -2.83113,0.84823 -3.75074,1.51217 -2.87617,2.07655 0.77452,0.4998 0.093,0.65033 -1.71437,0.37861 -1.65,-0.24807 -5.66443,-0.71041 -8.92096,-1.02743 -13.57111,-1.32115 -22.06921,-9.53154 -22.7903,-22.01875 l -0.28874,-5 47.59479,-0.2596 47.59479,-0.2596 1.85179,-9.7404 c 4.5416,-23.88877 0.74985,-40.3431 -12.00628,-52.10129 -6.10162,-5.62427 -13.45541,-9.07175 -23.98783,-11.24556 -19.08672,-3.93934 -36.74945,-1.34126 -56.11595,8.25433 -9.12755,4.52246 -24.84026,17.34403 -23.9853,19.57201 0.29209,0.76119 0.12574,1.13347 -0.36967,0.82729 -1.22915,-0.75966 -7.37807,7.1556 -6.57199,8.45986 0.35437,0.57338 0.12548,0.91886 -0.50864,0.76774 -1.51475,-0.36101 -6.61002,8.9236 -9.72737,17.72522 -1.88313,5.3169 -2.60109,9.7651 -2.98597,18.5 -0.6022,13.66692 0.54823,20.76381 4.81519,29.70443 3.37867,7.07935 12.9886,17.97839 14.84199,16.83293 0.6105,-0.37731 0.98635,-0.15173 0.83523,0.50128 -0.43099,1.86227 11.83956,8.15272 19.65129,10.07416 10.90216,2.68159 27.04557,2.46352 38.82454,-0.52446 z m -31.50061,-80.38307 c -1.68994,-0.33984 -2.53085,-2.20527 -0.99411,-2.20527 0.41574,0 1.3849,-1.42103 2.15368,-3.15784 1.81799,-4.10712 11.9795,-14.08711 16.55314,-16.25744 9.36852,-4.44565 23.23936,-3.75635 30.51845,1.51659 4.72793,3.4249 7.01884,8.32761 7.01884,15.02081 v 4.87788 l -24.25,0.12895 c -13.3375,0.0709 -25.375,0.19629 -26.75,0.27859 -1.375,0.0823 -3.2875,-0.009 -4.25,-0.20227 z m 53.87673,-5.9119 c -1.01112,-7.37697 -3.58889,-11.47103 -8.90029,-14.13559 -9.95923,-4.99623 -22.51203,-3.63416 -31.64903,3.43415 -4.28099,3.31174 -12.07741,12.67751 -12.07741,14.50848 0,0.51027 11.52734,0.89959 26.63592,0.89959 h 26.63593 z m 32.80448,89.38796 c -0.27831,-0.72526 0.64805,-8.03776 2.05858,-16.25 1.41053,-8.21223 4.15707,-24.15633 6.10342,-35.43133 1.94635,-11.275 4.85286,-28.15 6.45891,-37.5 1.60605,-9.35 3.35881,-19.475 3.89502,-22.5 0.53622,-3.025 1.50225,-8.65 2.14675,-12.5 1.89928,-11.34572 0.0917,-10.5 22.44129,-10.5 22.20121,0 20.3866,-1.01009 17.96482,10 -1.98432,9.02127 -2.00007,8.9999 2.75,3.73131 8.58549,-9.52269 22.91814,-15.18535 36.78802,-14.53453 6.31364,0.29626 6.46961,0.37013 6.7943,3.21798 0.3528,3.09435 -6.58698,35.30991 -8.01397,37.20212 -0.46421,0.61556 -5.2133,1.35703 -10.58031,1.6519 -12.87163,0.70719 -18.40456,2.76731 -24.91344,9.27618 -6.65335,6.65336 -6.9105,7.58143 -13.79746,49.79544 -3.03647,18.61222 -5.77382,34.24972 -6.08301,34.75 -0.30929,0.50044 -10.22104,0.9096 -22.03453,0.9096 -16.85175,0 -21.58126,-0.28376 -21.97839,-1.31867 z m 48.75109,-36.077 c 3.16456,-19.19262 6.46053,-37.02363 7.32439,-39.62447 1.86512,-5.61534 8.66543,-12.92046 14.7642,-15.86018 4.8896,-2.35688 17.18368,-4.47713 22.83514,-3.93818 l 3.88236,0.37024 1.45465,-5.02587 c 0.80006,-2.76423 2.81216,-11.10087 4.47134,-18.52587 3.84031,-17.18582 3.86144,-17.15733 -11.11732,-14.99092 -7.98871,1.15542 -15.04699,3.77751 -14.13607,5.25141 0.38396,0.62126 0.16539,0.75024 -0.53638,0.31652 -2.60737,-1.61144 -14.20412,7.8678 -18.4243,15.06011 -0.43983,0.74958 -1.21608,1.36288 -1.725,1.36288 -0.93343,0 -0.49541,-3.97248 1.0475,-9.5 0.46056,-1.65 1.1334,-4.9125 1.49519,-7.25 l 0.6578,-4.25 h -18.41505 -18.41505 l -1.112,6.25 c -0.61161,3.4375 -2.73786,15.7 -4.72501,27.25 -6.68355,38.84709 -13.65416,78.92743 -15.43842,88.76945 l -1.77111,9.76945 21.06471,-0.26945 21.0647,-0.26945 z m 49.23304,36.03565 c -0.28704,-0.74801 1.05655,-10.53551 2.98574,-21.75 1.92919,-11.21449 6.92353,-40.41498 11.09853,-64.88998 4.175,-24.475 7.82586,-45.2875 8.11304,-46.25 0.47393,-1.58848 2.31025,-1.75 19.89572,-1.75 10.65548,0 19.56928,0.3375 19.80844,0.75 0.46437,0.80092 -1.53226,13.2841 -2.71023,16.94469 -0.47173,1.46593 1.31002,0.22177 5.36583,-3.74683 10.13577,-9.91785 22.66639,-14.94786 37.23769,-14.94786 h 7.7899 v 2.97357 c 0,3.57583 -7.71993,37.16787 -8.76532,38.14087 -0.40407,0.3761 -5.23468,0.90482 -10.73468,1.17494 -11.51355,0.56546 -12.49994,0.76024 -18.76592,3.70559 -6.37912,2.99854 -12.24785,9.62861 -14.12846,15.96132 -0.84055,2.83043 -3.82567,19.86066 -6.63362,37.84497 -2.80794,17.98431 -5.5157,33.71124 -6.01724,34.94874 -0.90602,2.23553 -1.05049,2.25 -22.46471,2.25 -17.24963,0 -21.65702,-0.27154 -22.07471,-1.36002 z m 43.72018,-4.63998 c 0.39006,-1.925 1.85205,-10.7 3.24884,-19.5 6.17574,-38.9079 7.90123,-48.25899 9.63824,-52.23334 5.46613,-12.50674 14.89384,-17.73712 34.4774,-19.12763 l 9,-0.63903 2.69751,-11.5 c 1.48363,-6.325 3.44075,-14.56788 4.34915,-18.31752 0.9084,-3.74963 1.34363,-7.12463 0.96718,-7.5 -1.412,-1.40793 -15.72521,-0.31308 -22.39606,1.71313 -7.59744,2.30765 -16.60541,7.77753 -16.64022,10.10439 -0.0124,0.82702 -0.75642,1.37761 -1.6584,1.2272 -1.90239,-0.31723 -8.01844,6.64135 -7.1179,8.09844 0.33426,0.54086 0.11932,0.68151 -0.47765,0.31256 -0.59698,-0.36895 -1.36807,-0.21348 -1.71353,0.34549 -1.2753,2.06349 -2.45619,1.00476 -1.54689,-1.38688 0.50253,-1.32175 1.40166,-5.25925 1.99806,-8.75 0.5964,-3.49074 1.30767,-7.35931 1.58061,-8.59681 l 0.49624,-2.25 h -18.39405 -18.39405 l -0.66745,3.25 c -1.01031,4.91942 -4.06415,22.59713 -10.58099,61.25 -3.24553,19.25 -7.0486,41.71764 -8.45126,49.92809 -1.40267,8.21044 -2.5503,15.53207 -2.5503,16.27028 0,1.08844 3.91617,1.2911 20.71315,1.07192 l 20.71315,-0.27029 z m 100.36448,5.04351 c -12.50821,-2.71554 -26.25949,-10.55252 -32.88523,-18.74157 -18.6363,-23.03345 -15.84949,-57.99427 6.8655,-86.12827 12.63399,-15.64802 28.79452,-26.0135 47.18102,-30.26224 12.54495,-2.89887 32.20503,-2.38687 42.33871,1.10261 18.11099,6.23643 29.90913,19.23582 33.11438,36.48596 1.88715,10.15637 -0.74937,32.41379 -4.41248,37.25 -0.73377,0.96876 -11.49392,1.25 -47.82434,1.25 h -46.87756 v 3.5109 c 0,7.95701 6.94097,16.95641 14.92228,19.34767 4.72993,1.41712 13.37405,1.46457 18.28594,0.10039 2.03952,-0.56645 6.15262,-3.26394 9.14021,-5.99443 l 5.43199,-4.96453 h 19.74063 19.74063 l -0.57617,3.55056 c -1.16224,7.16205 -11.09654,20.57089 -20.73569,27.98805 -7.27312,5.59654 -18.76491,11.78229 -25.94982,13.96815 -6.3169,1.92179 -31.0566,2.93562 -37.5,1.53675 z m 41.32441,-4.84684 c 11.51368,-4.30327 23.76755,-12.68601 30.66259,-20.97594 5.42815,-6.52628 12.05175,-18.01531 10.99521,-19.07185 -0.28733,-0.28733 -8.81929,-0.44561 -18.95991,-0.35174 l -18.43749,0.17068 -4.2924,4.28663 c -9.28543,9.27293 -26.31469,10.3763 -36.28244,2.35084 -5.32456,-4.28704 -8.50908,-10.354 -8.7808,-16.72868 l -0.22917,-5.37661 46.96002,-0.26002 c 25.82802,-0.14302 47.34476,-0.64476 47.81499,-1.11499 0.47023,-0.47023 1.71801,-4.17822 2.77284,-8.23998 2.59424,-9.98945 2.61338,-24.58229 0.0431,-32.84073 -4.79699,-15.41263 -17.84328,-26.66253 -36.09095,-31.12143 -8.69789,-2.12537 -28.8779,-1.65219 -38.27242,0.89742 -9.09312,2.4678 -23.33323,9.24092 -22.98958,10.93469 0.13091,0.64519 -0.34267,0.95024 -1.05239,0.67789 -2.42057,-0.92886 -19.36548,14.65809 -18.12214,16.66984 0.45081,0.72944 0.32478,0.94628 -0.31882,0.54851 -1.21716,-0.75225 -8.71669,9.36096 -12.49436,16.8488 -9.24058,18.31605 -10.16842,41.00531 -2.37181,58 4.27256,9.31312 18.68592,22.47551 25.02822,22.85595 1.32076,0.0792 2.20364,0.46435 1.96195,0.85583 -0.24169,0.39147 2.16399,1.43668 5.34596,2.32268 3.18196,0.88601 6.23539,1.79445 6.78539,2.01877 0.55,0.22432 7.975,0.2609 16.5,0.0813 14.4761,-0.30499 16.0499,-0.53209 23.82441,-3.43784 z m -37.36618,-79.07049 c -0.90339,-0.9065 4.1863,-8.92739 8.67983,-13.67864 6.66724,-7.04963 14.66748,-10.63132 23.6836,-10.60312 7.06458,0.0221 14.31827,2.06811 17.4851,4.93191 2.80222,2.53408 5.47254,8.27238 5.69824,12.24504 0.42985,7.56592 3.0366,6.88586 -27.58962,7.19773 -15.17154,0.1545 -27.75226,0.11268 -27.95715,-0.0929 z m 54.10445,-6.36517 c -1.47162,-11.09365 -8.36932,-16.28004 -21.59301,-16.23583 -6.14419,0.0205 -8.56008,0.52898 -13.12454,2.76216 -5.84295,2.85869 -13.47079,10.15429 -16.26384,15.55546 l -1.63265,3.1572 h 26.65451 26.65451 z m 392.98203,90.31137 c -0.5971,-0.96618 20.9594,-132.46096 21.9877,-134.12474 0.3372,-0.54572 9.0642,-0.94764 20.5763,-0.94764 h 19.9906 l -0.6894,6.25 c -0.3792,3.4375 -1.0766,7.29179 -1.5497,8.5651 -1.5148,4.07675 -0.9677,3.90224 4.5644,-1.45605 6.2806,-6.08319 14.3261,-10.41534 23.6393,-12.72865 8.023,-1.99283 18.2543,-2.15685 19.7811,-0.31712 0.8024,0.96675 0.1748,5.65039 -2.3784,17.75 -1.9076,9.0402 -3.8209,17.78672 -4.2518,19.43672 l -0.7835,3 -10.9657,0.64269 c -6.0311,0.35348 -12.8342,1.33051 -15.1179,2.17118 -9.191,3.38324 -15.3395,9.3424 -18.1945,17.6341 -1.173,3.40685 -4.8604,25.01128 -9.732,57.0193 -1.3929,9.15175 -3.0427,16.80819 -3.7137,17.23468 -1.742,1.10715 -42.474,0.98487 -43.1628,-0.12957 z m 42.8666,-2.32238 c 0.1918,-0.6875 2.6466,-16.1 5.4553,-34.25 5.7825,-37.36694 5.9966,-38.31586 10.1074,-44.798 5.5878,-8.81101 15.7284,-13.35425 32.1006,-14.38182 l 9.5746,-0.60093 1.7823,-9.60963 c 0.9802,-5.28529 2.6272,-12.98462 3.66,-17.10962 2.8849,-11.52244 3.1615,-11.00209 -5.8415,-10.9871 -14.3327,0.0239 -25.7865,5.05341 -35.9779,15.79849 -3.4253,3.61142 -6.4259,6.36816 -6.668,6.12607 -0.2421,-0.24208 0.1894,-2.86717 0.9589,-5.83353 0.7695,-2.96635 1.7961,-7.57824 2.2815,-10.24865 l 0.8825,-4.85528 h -19.1697 -19.1696 l -1.7542,11.25 c -0.9648,6.1875 -2.3616,14.625 -3.1039,18.75 -2.0739,11.52418 -3.542,20.34742 -5.6573,34 -3.4688,22.38805 -3.7737,24.25728 -7.3404,45 -1.9387,11.275 -3.5264,21.0625 -3.5284,21.75 0,0.95953 4.7676,1.25 20.5279,1.25 15.5725,0 20.6156,-0.30191 20.8799,-1.25 z m 141.004,1.88985 c -0.2871,-0.74809 -0.053,-6.71059 0.5211,-13.25 1.327,-15.12782 1.3355,-33.37308 0.021,-44.84933 -6.1532,-53.71425 -34.2501,-93.99098 -82.9572,-118.91878 -16.0173,-8.1975 -24.9547,-11.32393 -43.8428,-15.33689 -11.6843,-2.48245 -14.4636,-2.68948 -36.1572,-2.69343 -20.4824,-0.004 -24.9736,0.28941 -34.976,2.28278 -29.3348,5.8461 -54.7115,18.2355 -71.7185,35.01437 l -6.1946,6.11143 -15.3054,0.0307 c -42.07222,0.0845 -68.1757,-0.14148 -68.91187,-0.59646 -1.34363,-0.8304 0.84607,-5.28831 7.64971,-15.57366 l 6.43843,-9.73327 20.75911,0.56126 20.7591,0.56126 9.79452,-8.36092 9.7944,-8.36092 -0.094,-13.514 c -0.052,-7.43271 -0.072,-16.32266 -0.044,-19.75546 l 0.05,-6.24145 5.25,-3.0746 c 2.8875,-1.69103 7.5,-4.46155 10.25,-6.1567 6.6345,-4.08964 22.836,-12.46193 28.6435,-14.80176 l 4.6434,-1.87086 4.8566,3.05411 c 2.6711,1.67976 9.6113,6.58965 15.4228,10.91086 l 10.5663,7.85676 9.9337,-1.99883 c 5.4635,-1.09936 10.8846,-2.07776 12.0467,-2.17423 1.7285,-0.14347 2.9904,-2.40593 6.9335,-12.43063 2.7864,-7.08416 5.4405,-12.376749 6.2901,-12.543219 2.7051,-0.53006 30.0004,0.99323 31.2117,1.74184 0.6575,0.40634 3.5801,5.814099 6.4948,12.017239 l 5.2994,11.27844 5.8288,1.12011 c 3.2058,0.61606 8.6212,1.78032 12.0342,2.58724 8.5883,2.03048 9.149,1.9434 14.7945,-2.29755 11.0151,-8.27549 15.5887,-11.2353 17.3604,-11.2353 1.7673,0 8.8197,3.00027 24.8885,10.58812 l 7.25,3.42353 v 12.40228 12.40228 l 8.25,5.40536 c 4.5375,2.97294 8.854,5.76648 9.5921,6.20785 0.7735,0.46249 7.0738,-0.60441 14.8701,-2.51813 l 13.5279,-3.32063 3.9388,4.45467 c 6.2907,7.11466 19.6742,23.81161 20.8556,26.01909 0.8951,1.67248 0.2794,3.49143 -3.5756,10.5634 l -4.6568,8.54302 2.6827,3.66458 c 1.4755,2.01552 4.2311,5.9478 6.1236,8.7384 l 3.4408,5.07382 8.2254,1.3038 c 9.8016,1.55365 14.2727,3.24211 17.9746,6.78788 3.2376,3.10116 7.9232,14.74192 11.3136,28.10726 l 2.4206,9.54217 -2.2417,2.43876 c -1.2329,1.34132 -4.7041,4.74135 -7.7137,7.55563 -12.3169,11.51742 -11.028,8.8402 -11.028,22.90641 v 12.4434 l 9.75,7.93434 c 8.4483,6.87507 9.7399,8.32806 9.674,10.88352 -0.073,2.8387 -3.9866,25.10618 -5.0438,28.69919 -0.4763,1.61868 -2.8761,1.75 -31.979,1.75 -25.6077,0 -31.5611,-0.25316 -31.9859,-1.36015 z m 63.0997,-4.38985 c 0.333,-2.0625 1.0014,-5.775 1.4852,-8.25 0.4838,-2.475 1.4443,-7.5632 2.1345,-11.3071 l 1.2549,-6.8071 -2.9448,-2.46402 c -1.6196,-1.3552 -5.6448,-4.57631 -8.9448,-7.15802 -9.0431,-7.07469 -8.6394,-6.01663 -7.9216,-20.76376 l 0.6327,-13 9.973,-9.5 9.973,-9.5 -2.0199,-8.5 c -2.3238,-9.77885 -6.3884,-21.02513 -9.3178,-25.78109 -2.7847,-4.52114 -8.5272,-7.16772 -18.504,-8.52817 l -8.4589,-1.15346 -7.0032,-9.74127 -7.0031,-9.74127 4.6613,-8.27737 4.6613,-8.27737 -1.7721,-3.30245 c -1.6723,-3.11646 -14.0317,-18.45132 -19.7038,-24.44755 -1.4308,-1.5125 -3.1948,-2.75 -3.92,-2.75 -0.7252,0 -6.6737,1.30632 -13.2189,2.90293 -6.5452,1.59661 -12.6108,2.64313 -13.4792,2.3256 -0.8683,-0.31754 -4.821,-2.74885 -8.7836,-5.40293 -3.9627,-2.65408 -7.6271,-4.8256 -8.1431,-4.8256 -1.7816,0 -2.3095,-3.54205 -2.2488,-15.08859 l 0.061,-11.58858 -14.2321,-6.67722 c -7.8276,-3.67246 -15.0927,-6.6701 -16.1446,-6.66141 -2.4407,0.0202 -11.7477,5.94752 -11.0673,7.04846 0.2818,0.45603 -0.014,1.15477 -0.6584,1.55275 -0.7312,0.45192 -0.9029,0.29014 -0.4573,-0.4309 0.3924,-0.63498 0.391,-1.15451 0,-1.15451 -0.8568,0 -11.5855,8.06385 -12.6361,9.49747 -0.4608,0.62883 -0.7404,0.55095 -0.75,-0.20893 -0.018,-1.43754 -5.2645,-3.00045 -17.4119,-5.18708 -5.5259,-0.99469 -9.2124,-2.16979 -9.7299,-3.10146 -0.4582,-0.825 -2.9129,-6.07142 -5.4549,-11.6587 l -4.6217,-10.158709 -6.6484,-0.58055 c -3.6567,-0.31931 -10.677,-0.69789 -15.6007,-0.8413 l -8.9523,-0.26074 -4.7129,11.988519 -4.7129,11.98852 -12.8348,2.67611 -12.8349,2.67612 -9.4927,-7.16463 c -5.221,-3.94055 -12.0548,-8.82379 -15.1863,-10.85163 -5.2777,-3.41772 -5.972,-3.61147 -9.5073,-2.65283 -2.0975,0.56879 -5.1637,1.82686 -6.8137,2.79572 -1.65,0.96886 -7.3547,4.06646 -12.6772,6.88355 -9.364,4.95623 -13.0519,7.16319 -21.159,12.66219 l -3.8362,2.60207 0.227,18.19815 c 0.1248,10.00898 0.1636,18.67335 0.086,19.25415 -0.077,0.58081 -4.2759,4.63081 -9.33,9 l -9.18922,7.94399 -21.478,0.5 -21.47796,0.5 -3.27083,4.5 c -4.29481,5.90453 -10.3978,15.90597 -10.3978,17.0346 0,0.50616 17.49108,0.9134 40.48039,0.9425 l 40.48042,0.0512 7.2343,-6.6389 c 9.923,-9.10628 19.2825,-15.49555 31.2129,-21.3073 28.2064,-13.74042 58.4084,-18.9616 92.592,-16.00686 7.975,0.68934 15.85,1.2919 17.5,1.33903 1.65,0.0471 3.225,0.34528 3.5,0.66256 0.275,0.31729 5.45,1.86263 11.5,3.4341 42.3918,11.01114 79.9295,40.20358 99.7256,77.55489 13.6673,25.78739 19.0801,55.63337 16.8588,92.95901 -0.5418,9.10394 -1.2805,17.32269 -1.6417,18.26388 -0.6111,1.59237 1.5012,1.71125 30.405,1.71125 h 31.0617 z"
       id="path1" />
    <path
       id="rect2"
       style="fill:#000080;stroke:#000080;stroke-width:6;stroke-dasharray:none;stroke-opacity:1"
       d="m 1218.2079,-517.45487 c 2.7051,-0.53006 30.0016,0.99357 31.2129,1.74218 0.6575,0.40634 3.5794,5.81444 6.4941,12.01758 l 5.2989,11.27735 5.83,1.12109 c 3.2058,0.61606 8.6202,1.77902 12.0332,2.58594 8.5883,2.03048 9.1495,1.94407 14.795,-2.29688 11.0151,-8.27549 15.5896,-11.23437 17.3613,-11.23437 1.7673,0 8.8199,3.00004 24.8887,10.58789 l 7.25,3.42383 v 12.40234 12.40234 l 8.25,5.4043 c 4.5375,2.97294 8.8537,5.76566 9.5918,6.20703 0.7735,0.46249 7.0728,-0.60386 14.8691,-2.51758 l 13.5273,-3.32031 3.9395,4.45508 c 6.2907,7.11466 19.6741,23.81205 20.8555,26.01953 0.8951,1.67248 0.2807,3.49053 -3.5743,10.5625 l -4.6582,8.54297 2.6836,3.66406 c 1.4755,2.01552 4.2306,5.94768 6.1231,8.73828 l 3.4414,5.07422 8.2246,1.30469 c 9.8016,1.55365 14.2727,3.24134 17.9746,6.78711 3.2376,3.10116 7.9241,14.74208 11.3145,28.10742 l 2.4199,9.54297 -2.2422,2.4375 c -1.2329,1.34132 -4.7033,4.74236 -7.7129,7.55664 -12.3169,11.51742 -11.0273,8.84004 -11.0273,22.90625 v 12.44336 l 9.75,7.93359 c 8.4483,6.87507 9.7397,8.32931 9.6738,10.88477 -0.073,2.8387 -3.9877,25.10621 -5.0449,28.69922 -0.4763,1.61868 -2.8757,1.75 -31.9786,1.75 -25.6077,0 -31.5615,-0.25434 -31.9863,-1.36133 -0.2871,-0.74809 -0.053,-6.71059 0.5215,-13.25 1.327,-15.12782 1.336,-33.37336 0.022,-44.84961 -6.1532,-53.71425 -34.2499,-93.99017 -82.957,-118.91797 -16.0173,-8.1975 -24.9557,-11.32493 -43.8438,-15.33789 -11.6843,-2.48245 -14.4626,-2.68941 -36.1562,-2.69336 -20.4824,-0.004 -24.9742,0.28983 -34.9766,2.2832 -29.3348,5.8461 -54.7118,18.23676 -71.7188,35.01563 l -6.1953,6.11133 -15.3047,0.0293 c -42.0722,0.0845 -68.1759,-0.14072 -68.9121,-0.5957 -1.3436,-0.8304 0.8467,-5.28887 7.6504,-15.57422 l 6.4375,-9.73242 20.7597,0.56055 20.7598,0.5625 9.793,-8.36133 9.7949,-8.36133 -0.094,-13.51367 c -0.052,-7.43271 -0.071,-16.32306 -0.043,-19.75586 l 0.049,-6.24219 5.25,-3.07422 c 2.8875,-1.69103 7.5,-4.4611 10.25,-6.15625 6.6345,-4.08964 22.837,-12.4629 28.6445,-14.80273 l 4.6426,-1.86914 4.8574,3.05273 c 2.6711,1.67976 9.6105,6.5909 15.422,10.91211 l 10.5664,7.85547 9.9336,-1.99805 c 5.4635,-1.09936 10.8847,-2.07735 12.0468,-2.17382 1.7285,-0.14347 2.9905,-2.40694 6.9336,-12.43164 2.7864,-7.08416 5.4395,-12.3765 6.2891,-12.54297 z m -0.2383,1.71289 -4.7129,11.98828 -4.7129,11.98828 -12.834,2.67578 -12.8359,2.67578 -9.4922,-7.16406 c -5.221,-3.94055 -12.0541,-8.82372 -15.1856,-10.85156 -5.2777,-3.41772 -5.9725,-3.61099 -9.5078,-2.65235 -2.0975,0.56879 -5.1644,1.82607 -6.8144,2.79493 -1.65,0.96886 -7.3553,4.06572 -12.6778,6.88281 -9.364,4.95623 -13.0511,7.16311 -21.1582,12.66211 l -3.8359,2.60351 0.2266,18.19727 c 0.1248,10.00898 0.1635,18.67311 0.086,19.25391 -0.077,0.58081 -4.276,4.63081 -9.3301,9 l -9.1894,7.94531 -21.4766,0.5 -21.4785,0.5 -3.2715,4.5 c -4.2948,5.90453 -10.3965,15.90457 -10.3965,17.0332 0,0.50616 17.4912,0.91426 40.4804,0.94336 l 40.4805,0.0508 7.2325,-6.63867 c 9.923,-9.10628 19.2825,-15.49489 31.2129,-21.30664 28.2064,-13.74042 58.4102,-18.96255 92.5938,-16.00781 7.975,0.68934 15.85,1.29271 17.5,1.33984 1.65,0.0471 3.225,0.34483 3.5,0.66211 0.275,0.31729 5.45,1.86212 11.5,3.43359 42.3918,11.01114 79.9285,40.20338 99.7246,77.55469 13.6673,25.78739 19.0806,55.63334 16.8593,92.95898 -0.5418,9.10394 -1.2813,17.32249 -1.6425,18.26368 -0.6111,1.59237 1.5024,1.71289 30.4062,1.71289 h 31.0606 l 0.6054,-3.75 c 0.333,-2.0625 1.0026,-5.775 1.4864,-8.25 0.4838,-2.475 1.4445,-7.5647 2.1347,-11.3086 l 1.2539,-6.80664 -2.9453,-2.46289 c -1.6196,-1.3552 -5.6433,-4.57649 -8.9433,-7.1582 -9.0431,-7.07469 -8.6397,-6.01654 -7.9219,-20.76367 l 0.6328,-13 9.9726,-9.5 9.9727,-9.5 -2.0195,-8.5 c -2.3238,-9.77885 -6.389,-21.02529 -9.3184,-25.78125 -2.7847,-4.52114 -8.5271,-7.16885 -18.5039,-8.5293 l -8.459,-1.15234 -7.0039,-9.74219 -7.0019,-9.74023 4.6601,-8.27735 4.6621,-8.27734 -1.7715,-3.30274 c -1.6723,-3.11646 -14.0329,-18.45103 -19.705,-24.44726 -1.4308,-1.5125 -3.1948,-2.75 -3.92,-2.75 -0.7252,0 -6.6735,1.30573 -13.2187,2.90234 -6.5452,1.59661 -12.6101,2.6437 -13.4785,2.32617 -0.8683,-0.31754 -4.8206,-2.75021 -8.7832,-5.40429 -3.9627,-2.65408 -7.6286,-4.82422 -8.1446,-4.82422 -1.7816,0 -2.3087,-3.54331 -2.248,-15.08985 l 0.06,-11.58789 -14.2324,-6.67773 c -7.8276,-3.67246 -15.0926,-6.66885 -16.1445,-6.66016 -2.4407,0.0202 -11.7468,5.94594 -11.0664,7.04688 0.2818,0.45603 -0.014,1.15475 -0.6582,1.55273 -0.7312,0.45192 -0.9026,0.29135 -0.457,-0.42969 0.3924,-0.63498 0.391,-1.15429 0,-1.15429 -0.8568,0 -11.5862,8.06247 -12.6368,9.49609 -0.4608,0.62883 -0.7404,0.5509 -0.75,-0.20898 -0.018,-1.43754 -5.2647,-2.99892 -17.4121,-5.18555 -5.5259,-0.99469 -9.2129,-2.16989 -9.7304,-3.10156 -0.4582,-0.825 -2.9112,-6.07288 -5.4532,-11.66016 l -4.623,-10.1582 -6.6485,-0.58008 c -3.6567,-0.31931 -10.6759,-0.69839 -15.5996,-0.8418 z m -804.59768,9.07812 c 24.15066,0.0663 30.86543,0.42474 44,2.35157 17.33737,2.54336 45.09744,8.87391 52.0625,11.87304 8.2477,3.55143 12.17024,11.15559 8.90234,17.26172 -1.00359,1.87522 -2.66412,1.93555 -54.34961,1.93555 h -53.3125 l -1.625,3.75 c -0.8933,2.0625 -4.29191,10.95 -7.55469,19.75 -3.26278,8.8 -6.24847,16.7875 -6.63476,17.75 -0.66307,1.65211 1.98078,1.75 47.28125,1.75 41.24673,0 48.15793,0.20812 49.21875,1.48633 2.92656,3.52629 -2.25825,10.36333 -11.16211,14.71875 -11.92011,5.83084 -14.08153,6.08712 -56.78906,6.71484 l -39.46094,0.58008 -8.81055,24.5 c -23.93751,66.57387 -34.45451,96.01918 -40.0039,112 -3.34233,9.625 -6.76756,18.0625 -7.61133,18.75 -2.29104,1.86671 -46.00817,1.78817 -46.72657,-0.084 -0.28156,-0.73374 2.61804,-10.29624 6.44336,-21.25 19.15123,-54.83935 22.5695,-64.53584 29.9375,-84.91601 8.48693,-23.47515 16.40224,-44.89246 17.64063,-47.73438 0.70521,-1.61834 -1.09455,-1.75175 -26.98633,-2 -24.11999,-0.23127 -27.87366,-0.4744 -28.74805,-1.86133 -3.52863,-5.59702 7.09742,-15.46762 20.46094,-19.00586 2.38018,-0.63018 13.50571,-1.42877 24.72266,-1.77343 l 20.39258,-0.625 3.76757,-9.2461 c 2.07151,-5.08535 3.41047,-9.46621 2.97657,-9.73437 -0.43391,-0.26817 -6.80559,-0.28451 -14.16016,-0.0352 -18.58698,0.63021 -30.70622,-0.3065 -31.86133,-2.46484 -1.20835,-2.25782 2.72626,-10.65745 6.78711,-14.49024 4.62088,-4.36137 9.80616,-5.41355 30.39063,-6.16015 l 18.6875,-0.67774 4.61132,-9.5957 c 6.20027,-12.90578 10.14444,-18.51325 14.97266,-21.28125 3.97368,-2.2781 4.50483,-2.31333 32.54102,-2.23633 z m 13.34961,1.30469 c -22.59625,-0.58299 -37.73434,-0.22865 -42.04883,0.98438 -6.18281,1.73829 -9.46029,5.71276 -16.48633,19.98242 l -6.31445,12.82617 -15.5,0.18945 c -8.525,0.10449 -16.9625,0.40254 -18.75,0.66211 -1.7875,0.25957 -4.83473,0.71937 -6.77149,1.02149 -4.27704,0.66721 -9.91035,5.41371 -12.53906,10.5664 -2.35475,4.61569 -2.4467,6.47637 -0.35938,7.27735 0.86998,0.33385 11.66833,0.60742 23.9961,0.60742 h 22.41406 l -2.06836,5.25 c -1.13808,2.8875 -2.76808,7.275 -3.62305,9.75 -2.48132,7.18308 -2.33845,7.12608 -19.42187,7.59179 -21.08853,0.57489 -25.39092,1.01429 -32.99609,3.36329 -6.89724,2.13034 -15.17711,8.2406 -16.13672,11.91015 -1.18162,4.51855 -0.45593,4.63477 29.2207,4.63477 15.41916,0 28.03541,0.35108 28.03516,0.78125 -2.6e-4,0.43016 -0.72314,2.45516 -1.60547,4.5 -2.79195,6.47047 -25.74314,69.85886 -35.5625,98.21875 -2.18998,6.325 -5.54362,16 -7.45313,21.5 -6.39465,18.41867 -7.4353,21.91357 -6.91797,23.26172 0.28294,0.73733 0.11785,1.09663 -0.36718,0.79687 -0.48503,-0.29977 -1.15306,0.53537 -1.48438,1.85547 -0.33133,1.3201 -0.8767,3.11609 -1.21289,3.99219 -0.40845,1.06439 -0.0586,1.59375 1.05469,1.59375 1.06666,0 1.39487,-0.44969 0.91406,-1.25 -0.57516,-0.95736 -0.41296,-0.98659 0.69141,-0.12305 2.15975,1.68875 40.36313,1.81059 41.63476,0.13281 0.52554,-0.69338 4.16618,-10.48476 8.08985,-21.75976 3.92367,-11.275 9.20452,-26.125 11.73437,-33 2.52985,-6.875 6.55004,-18.125 8.9336,-25 2.38355,-6.875 8.93333,-25.1 14.55664,-40.5 5.6233,-15.4 10.62983,-29.41271 11.125,-31.13867 l 0.90039,-3.13868 38.73437,-0.52148 c 41.35352,-0.5578 43.02051,-0.73864 56.33203,-6.12305 7.73118,-3.12721 13.23493,-8.18895 12.73633,-11.71289 l -0.33398,-2.36523 -48.81446,-0.25977 -48.81445,-0.25976 0.67187,-2.24024 c 0.82061,-2.73574 10.5322,-27.87676 14.09571,-36.49023 l 2.58594,-6.25 h 52.38671 c 51.05415,0 52.43958,-0.0509 54.38868,-2 2.52587,-2.52587 2.51698,-4.63678 -0.0312,-8.81641 -1.32727,-2.17699 -3.81667,-4.10777 -7.2461,-5.61914 -13.72699,-6.04959 -58.73332,-14.07173 -82.37304,-14.68164 z m 600.15037,1.69141 c 16.4733,0.0447 20.1969,0.35753 28,2.35937 23.1784,5.94626 36.4193,17.14968 39.3789,33.31641 1.9563,10.68652 -1.9625,22.71635 -9.1523,28.09765 -7.2466,5.42388 -16.7781,8.16654 -24.1953,6.96289 -3.4492,-0.55974 -3.5316,-0.68059 -3.5371,-5.1914 -0.01,-7.64861 -1.8307,-12.22873 -6.8672,-17.27149 -5.0432,-5.04942 -11.0849,-7.42381 -22.5977,-8.88086 -18.8332,-2.3835 -47.07709,3.08704 -63.52928,12.30469 -20.6516,11.57044 -29.92551,21.72529 -29.97852,32.82813 -0.0244,5.1019 3.43857,10.97139 8.63867,14.64062 6.78574,4.78807 21.55514,10.90132 46.83985,19.39063 54.96618,18.45484 74.95058,35.0841 73.15628,60.86914 -1.0262,14.74673 -6.9793,26.34133 -20.375,39.6875 -12.1188,12.07391 -29.0114,22.26802 -50.91996,30.72461 -28.96302,11.17958 -66.75603,16.49936 -96.36132,13.56445 -20.07722,-1.99035 -37.01259,-10.17369 -41.88477,-20.23828 -2.5943,-5.35911 -2.87463,-15.98734 -0.56641,-21.52149 2.05908,-4.9368 7.00255,-9.9152 11.23047,-11.31054 4.343,-1.43332 9.0608,-0.67851 22.22071,3.55273 15.17047,4.87769 21.56985,5.82364 39.5,5.8418 12.51621,0.0127 18.50397,-0.47005 27.5,-2.21875 23.29475,-4.52816 41.50854,-12.24985 51.28708,-21.74024 4.3732,-4.24433 5.7129,-6.95313 5.7129,-11.5625 0,-6.38015 -12.24642,-14.25669 -34.87889,-22.43554 -44.90783,-16.22866 -57.80996,-21.95089 -71.2168,-31.58008 -9.611,-6.9029 -13.99032,-11.64737 -18.01367,-19.51953 -2.78253,-5.44435 -3.25501,-7.51918 -3.65234,-16 -0.3832,-8.17944 -0.10546,-10.78807 1.72851,-16.24414 3.46116,-10.29697 10.38529,-20.49569 21.14649,-31.14649 22.02816,-21.80218 55.18138,-38.31057 90.48437,-45.05664 9.87243,-1.88653 15.14253,-2.26545 30.90233,-2.22265 z m 4.2129,1.75586 c -9.211,-0.30151 -18.5873,-0.14085 -24.2754,0.60742 -32.56385,4.28382 -63.99217,16.74479 -87.43748,34.66797 -5.69908,4.35676 -19,16.68843 -19,17.61523 0,0.29014 -1.53304,2.20102 -3.40625,4.24609 -5.27195,5.75563 -11.18594,18.17962 -12.57618,26.42188 -2.10678,12.49043 1.41048,25.04581 9.53711,34.04102 5.29883,5.86518 14.1445,12.3638 15.64844,11.49609 0.71228,-0.41095 0.96174,-0.37708 0.55274,0.0742 -2.28896,2.52595 17.22957,11.27161 63.53125,28.46679 26.52217,9.84961 36.84237,16.28596 38.05077,23.73243 2.9898,18.42374 -40.89797,38.19172 -85.33788,38.4375 -18.08697,0.10004 -29.47327,-1.74477 -44,-7.12696 -7.91438,-2.93231 -14.7719,-3.55029 -19.13672,-1.72656 -9.86037,4.11993 -13.71984,20.46151 -7.38477,31.27149 1.70011,2.90102 3.23451,4.40499 4.3086,4.2246 0.92008,-0.15453 1.67707,0.37754 1.68945,1.1875 0.051,3.33671 17.96709,10.41282 30.52344,12.05469 9.38248,1.22685 41.88788,0.37255 53,-1.39258 15.12131,-2.40197 15.85607,-2.5621 28.81836,-6.27929 42.44932,-12.17316 72.58812,-33.15456 83.28712,-57.98242 3.1708,-7.35806 3.3908,-8.57943 3.3926,-18.86719 0,-9.97395 -0.2454,-11.46639 -2.6465,-16 -2.8114,-5.30853 -11.1869,-14.18729 -12.9492,-13.72657 -0.5781,0.15112 -0.7943,-0.14077 -0.4805,-0.64843 1.103,-1.78466 -23.5773,-15.66487 -26.1192,-14.68946 -0.7738,0.29694 -1.1731,0.16078 -0.8867,-0.30273 0.631,-1.02095 -7.0155,-4.05613 -31.41598,-12.4707 -41.0965,-14.17221 -51.44264,-20.51712 -53.39844,-32.74805 -1.65413,-10.34438 6.94752,-21.89055 23.89844,-32.08203 19.43632,-11.68579 37.89055,-16.83172 60.35548,-16.83203 24.7134,-3.4e-4 38.0123,6.83152 41.0722,21.09961 0.5896,2.74922 1.0723,6.28243 1.0723,7.85156 v 2.85156 l 7.1855,-0.39648 c 7.6993,-0.42636 13.2327,-2.62239 18.0274,-7.15039 1.493,-1.40988 2.4362,-3.01365 2.0957,-3.56446 -0.3541,-0.57306 -0.1135,-0.69008 0.5606,-0.27343 2.3245,1.43656 5.6012,-8.18909 5.5898,-16.41797 -0.011,-7.72219 -1.8973,-14.46697 -3.7305,-13.33399 -0.6155,0.38044 -0.7359,0.1538 -0.2968,-0.55664 1.3591,-2.19903 -7.4962,-12.80632 -9.6036,-11.5039 -0.4836,0.29889 -0.7546,-0.0529 -0.6035,-0.78125 0.4106,-1.97895 -15.5105,-9.42565 -24.2246,-11.33008 -5.029,-1.09908 -14.0761,-1.86256 -23.2871,-2.16406 z m -234.97851,113.73632 c 7.74985,0.20183 15.19879,1.20253 20.26563,2.94727 18.11099,6.23643 29.90803,19.23619 33.11328,36.48633 1.88715,10.15637 -0.749,32.41379 -4.41211,37.25 -0.73377,0.96876 -11.4938,1.25 -47.82422,1.25 h -46.87695 v 3.50976 c 0,7.95701 6.94056,16.9564 14.92187,19.34766 4.72993,1.41712 13.37327,1.46574 18.28516,0.10156 2.03952,-0.56645 6.15303,-3.2656 9.14062,-5.99609 l 5.43164,-4.96289 h 19.74024 19.74219 l -0.57618,3.55078 c -1.16224,7.16205 -11.09718,20.56917 -20.73632,27.98633 -7.27312,5.59654 -18.76431,11.78289 -25.94922,13.96875 -6.3169,1.92179 -31.0566,2.93598 -37.5,1.53711 -12.50821,-2.71554 -26.26098,-10.55314 -32.88672,-18.74219 -18.6363,-23.03345 -15.84976,-57.99295 6.86523,-86.12695 12.63399,-15.64802 28.79514,-26.01494 47.18164,-30.26368 6.27248,-1.44943 14.32437,-2.04557 22.07422,-1.84375 z m -342.91015,0.13086 c 3.07691,-0.12308 6.47261,-0.10253 10.4375,0.0195 15.3288,0.4719 23.6414,2.53463 32.3164,8.02149 8.56248,5.4157 16.22378,16.0618 18.86914,26.2207 2.6079,10.01505 1.26673,32.52279 -2.46094,41.31055 l -0.96289,2.26758 -47.01171,-0.26758 -47.01368,-0.26953 v 2.50586 c 0.001,12.75404 10.30258,21.98566 24.50196,21.96093 8.48303,-0.0148 13.92772,-2.2224 19.59179,-7.94336 l 3.98438,-4.02343 h 19.96094 c 16.15797,0 19.96289,0.25912 19.96289,1.35937 0,1.93708 -5.62224,12.28322 -9.75391,17.95117 -7.71347,10.58157 -24.11984,21.71979 -38.06445,25.84375 -7.50522,2.21958 -28.91452,3.3592 -35.6836,1.89844 -25.09068,-5.41455 -41.48198,-20.32513 -46.05273,-41.89062 -7.44421,-35.12293 15.33442,-74.37603 51.55469,-88.84571 10.23502,-4.0888 16.59348,-5.7499 25.82422,-6.11914 z m 257.38476,0.80274 h 7.79102 v 2.97265 c 0,3.57583 -7.72024,37.16763 -8.76563,38.14063 -0.40407,0.3761 -5.23437,0.90566 -10.73437,1.17578 -11.51355,0.56546 -12.5016,0.75973 -18.76758,3.70508 -6.37912,2.99854 -12.24634,9.62823 -14.12696,15.96094 -0.84055,2.83043 -3.82681,19.86139 -6.63476,37.8457 -2.80794,17.98431 -5.51604,33.71172 -6.01758,34.94922 -0.90602,2.23553 -1.05062,2.25 -22.46484,2.25 -17.24963,0 -21.65653,-0.27285 -22.07422,-1.36133 -0.28704,-0.74801 1.05714,-10.53551 2.98633,-21.75 1.92919,-11.21449 6.92265,-40.41367 11.09765,-64.88867 4.175,-24.475 7.8261,-45.2875 8.11328,-46.25 0.47393,-1.58848 2.31102,-1.75 19.89649,-1.75 10.65548,0 19.56943,0.3375 19.80859,0.75 0.46437,0.80092 -1.53296,13.28277 -2.71094,16.94336 -0.47172,1.46593 1.30943,0.2225 5.36524,-3.7461 10.13577,-9.91785 22.66698,-14.94726 37.23828,-14.94726 z m 594.1817,0.0332 c 3.7515,-0.0601 6.6897,0.35943 7.4531,1.2793 0.8024,0.96675 0.1743,5.65039 -2.3789,17.75 -1.9076,9.0402 -3.8191,17.7875 -4.25,19.4375 l -0.7852,3 -10.9648,0.64258 c -6.0311,0.35348 -12.8335,1.32925 -15.1172,2.16992 -9.191,3.38324 -15.3403,9.34306 -18.1953,17.63476 -1.173,3.40685 -4.8608,25.01151 -9.7324,57.01953 -1.3929,9.15175 -3.0419,16.80789 -3.7129,17.23438 -1.742,1.10715 -42.4753,0.98553 -43.1641,-0.12891 -0.5971,-0.96618 20.96,-132.46122 21.9883,-134.125 0.3372,-0.54572 9.0641,-0.94726 20.5762,-0.94726 h 19.9902 l -0.6894,6.25 c -0.3792,3.4375 -1.0758,7.29114 -1.5489,8.56445 -1.5148,4.07675 -0.9676,3.90126 4.5645,-1.45703 6.2806,-6.08319 14.3255,-10.41521 23.6387,-12.72852 4.0115,-0.99641 8.5765,-1.53556 12.3281,-1.5957 z m -841.94146,0.13867 c -13.92766,-0.4814 -27.49466,2.77792 -42.01954,9.97461 -9.12755,4.52246 -24.83933,17.34429 -23.98437,19.57227 0.29209,0.76119 0.12627,1.1343 -0.36914,0.82812 -1.22915,-0.75966 -7.37835,7.15473 -6.57227,8.45899 0.35437,0.57338 0.12436,0.91869 -0.50976,0.76757 -1.51475,-0.361 -6.60922,8.92495 -9.72657,17.72657 -1.88313,5.3169 -2.60144,9.7651 -2.98632,18.5 -0.6022,13.66692 0.54944,20.7625 4.8164,29.70312 3.37867,7.07935 12.98841,17.97945 14.8418,16.83399 0.6105,-0.37731 0.9851,-0.15301 0.83398,0.5 -0.43099,1.86227 11.84062,8.15278 19.65235,10.07422 10.90216,2.68159 27.04525,2.46454 38.82422,-0.52344 13.81292,-3.50394 23.09253,-8.9127 33.75195,-19.67188 5.13531,-5.18337 13.99805,-18.89167 13.99805,-21.65234 0,-0.63464 -6.72739,-0.82093 -18.75,-0.51758 l -18.75,0.47461 -4.625,4.31055 c -2.54311,2.3715 -6.49617,4.87279 -8.78516,5.55859 -2.83113,0.84823 -3.75152,1.51179 -2.87695,2.07617 0.77452,0.4998 0.0945,0.65063 -1.71289,0.37891 -1.65,-0.24807 -5.66535,-0.71032 -8.92188,-1.02734 -13.57111,-1.32115 -22.06992,-9.53037 -22.79101,-22.01758 l -0.28711,-5 47.59375,-0.25977 47.5957,-0.25976 1.85156,-9.74024 c 4.5416,-23.88877 0.75027,-40.34337 -12.00586,-52.10156 -6.10162,-5.62427 -13.45586,-9.07228 -23.98828,-11.24609 -4.77168,-0.98484 -9.4551,-1.56024 -14.09765,-1.72071 z m 148.58789,0.0234 c 6.31364,0.29626 6.47023,0.3709 6.79492,3.21875 0.3528,3.09435 -6.58668,35.30896 -8.01367,37.20117 -0.46421,0.61556 -5.21503,1.35748 -10.58204,1.65235 -12.87163,0.70719 -18.40323,2.76847 -24.9121,9.27734 -6.65335,6.65336 -6.91187,7.58091 -13.79883,49.79492 -3.03647,18.61222 -5.77284,34.24972 -6.08203,34.75 -0.30929,0.50044 -10.22167,0.91016 -22.03516,0.91016 -16.85175,0 -21.58139,-0.28541 -21.97852,-1.32031 -0.27831,-0.72527 0.64807,-8.03777 2.0586,-16.25 1.41053,-8.21223 4.15716,-24.15469 6.10351,-35.42969 1.94635,-11.275 4.85294,-28.15 6.45899,-37.5 1.60605,-9.35 3.35832,-19.475 3.89453,-22.5 0.53622,-3.025 1.50394,-8.65 2.14844,-12.5 1.89928,-11.34572 0.0918,-10.5 22.4414,-10.5 22.20121,0 20.38663,-1.01009 17.96485,10 -1.98432,9.02127 -2.00007,8.99906 2.75,3.73047 8.58549,-9.52269 22.91723,-15.18598 36.78711,-14.53516 z m 180.08789,0.42188 c -7.30656,0.17132 -14.70118,0.92831 -19.39844,2.20312 -9.09312,2.4678 -23.33389,9.23982 -22.99024,10.93359 0.13091,0.64519 -0.34106,0.95009 -1.05078,0.67774 -2.42057,-0.92886 -19.36638,14.65817 -18.12304,16.66992 0.45081,0.72944 0.32524,0.9466 -0.31836,0.54883 -1.21716,-0.75225 -8.71647,9.36177 -12.49414,16.84961 -9.24058,18.31605 -10.16966,41.00531 -2.37305,58 4.27256,9.31312 18.687,22.47503 25.0293,22.85547 1.32076,0.0792 2.20262,0.46398 1.96093,0.85546 -0.24169,0.39148 2.16374,1.43627 5.34571,2.32227 3.18196,0.88601 6.23711,1.79521 6.78711,2.01953 0.55,0.22432 7.975,0.26163 16.5,0.082 14.4761,-0.30499 16.04971,-0.5337 23.82422,-3.43945 11.51368,-4.30327 23.76706,-12.68468 30.6621,-20.97461 5.42815,-6.52628 12.05069,-18.01572 10.99414,-19.07227 -0.28732,-0.28732 -8.81836,-0.44543 -18.95898,-0.35156 l -18.4375,0.16992 -4.29297,4.28711 c -9.28543,9.27293 -26.3135,10.37703 -36.28125,2.35157 -5.32456,-4.28704 -8.50953,-10.35579 -8.78125,-16.73047 l -0.22851,-5.375 46.95898,-0.25977 c 25.82802,-0.14302 47.34422,-0.645 47.81445,-1.11523 0.47023,-0.47023 1.71861,-4.17848 2.77344,-8.24024 2.59424,-9.98945 2.61325,-24.58335 0.043,-32.84179 -4.79699,-15.41263 -17.84217,-26.6622 -36.08984,-31.1211 -4.34895,-1.06268 -11.56845,-1.47601 -18.875,-1.30468 z m 291.18748,0.38281 h 21.3438 c 16.4092,0 21.342,0.28896 21.3398,1.25 0,0.6875 -0.904,6.65 -2.0059,13.25 -1.1018,6.6 -4.2885,26.38131 -7.082,43.95898 -4.8402,30.45651 -5.0049,32.11615 -3.4844,35.30469 2.2657,4.75107 7.1858,6.59078 16.0704,6.00781 7.5456,-0.4951 16.708,-4.25514 17.8925,-7.34179 0.3508,-0.91413 4.0105,-21.6832 8.1328,-46.1543 4.1223,-24.4711 7.7439,-44.89448 8.0469,-45.38477 0.303,-0.49029 10.4247,-0.89062 22.4922,-0.89062 h 21.9415 v 2.50781 c 0,1.37968 -1.1067,9.14218 -2.459,17.25 -1.3523,8.10782 -4.9976,30.26719 -8.0996,49.24219 -3.1021,18.975 -6.8387,41.7 -8.3047,50.5 l -2.666,16 h -19.4864 -19.4844 l 0.2344,-6.2168 0.2363,-6.21484 -6.2363,3.97461 c -8.7697,5.59086 -19.3282,8.73761 -31.3652,9.34765 -5.4281,0.2751 -12.294,0.0695 -15.2559,-0.45703 -10.6332,-1.89041 -18.9109,-8.2798 -24.1211,-18.61914 -1.9786,-3.92635 -2.4892,-6.66008 -2.7657,-14.81445 -0.3368,-9.93004 1.5997,-23.38222 12.9141,-89.75 z m -470.91991,0.0195 c -2.0444,0.0388 -4.85101,0.44668 -8.5957,0.98828 -7.98871,1.15542 -15.04764,3.77805 -14.13672,5.25195 0.38396,0.62126 0.16466,0.75013 -0.53711,0.31641 -2.60737,-1.61144 -14.20364,7.86824 -18.42382,15.06055 -0.43983,0.74958 -1.21569,1.36328 -1.72461,1.36328 -0.93343,0 -0.49604,-3.97248 1.04687,-9.5 0.46056,-1.65 1.1343,-4.9125 1.49609,-7.25 l 0.65821,-4.25 h -18.41602 -18.41406 l -1.11328,6.25 c -0.61161,3.4375 -2.73746,15.7 -4.72461,27.25 -6.68355,38.84709 -13.65324,78.92751 -15.4375,88.76953 l -1.77149,9.76953 21.06446,-0.26953 21.06445,-0.26953 5.75391,-34.89649 c 3.16456,-19.19262 6.46036,-37.02416 7.32422,-39.625 1.86512,-5.61534 8.6649,-12.91965 14.76367,-15.85937 4.8896,-2.35688 17.18447,-4.47645 22.83593,-3.9375 l 3.88282,0.36914 1.45312,-5.02539 c 0.80006,-2.76423 2.81348,-11.10039 4.47266,-18.52539 2.88023,-12.88937 3.61172,-16.09685 -2.52149,-15.98047 z m 101.96289,0.55078 c -4.93397,-0.19107 -14.23514,0.80456 -19.23828,2.32422 -7.59744,2.30765 -16.60581,7.77861 -16.64062,10.10547 -0.0124,0.82702 -0.75622,1.37697 -1.6582,1.22656 -1.90239,-0.31723 -8.01773,6.64057 -7.11719,8.09766 0.33426,0.54086 0.11845,0.68145 -0.47852,0.3125 -0.59698,-0.36895 -1.36743,-0.21327 -1.71289,0.3457 -1.2753,2.06349 -2.45617,1.00492 -1.54687,-1.38672 0.50253,-1.32175 1.40164,-5.25925 1.99804,-8.75 0.5964,-3.49074 1.30714,-7.3582 1.58008,-8.5957 l 0.4961,-2.25 h -18.39454 -18.39257 l -0.66797,3.25 c -1.01031,4.91942 -4.06519,22.59713 -10.58203,61.25 -3.24553,19.25 -7.04852,41.71728 -8.45118,49.92773 -1.40267,8.21044 -2.54882,15.53132 -2.54882,16.26953 0,1.08844 3.91591,1.29145 20.71289,1.07227 l 20.71289,-0.26953 0.70898,-3.5 c 0.39006,-1.925 1.85126,-10.7 3.24805,-19.5 6.17574,-38.9079 7.90166,-48.26003 9.63867,-52.23438 5.46613,-12.50674 14.89496,-17.73644 34.47852,-19.12695 l 9,-0.63867 2.69726,-11.5 c 1.48363,-6.325 3.43926,-14.56872 4.34766,-18.31836 0.9084,-3.74963 1.3452,-7.12463 0.96875,-7.5 -0.353,-0.35198 -1.51355,-0.54764 -3.15821,-0.61133 z m 589.89462,0.44141 c -14.3327,0.0239 -25.7872,5.05374 -35.9786,15.79882 -3.4119,3.59732 -6.4053,6.3448 -6.6679,6.12696 -0.2421,-0.24208 0.1895,-2.86763 0.959,-5.83399 0.7695,-2.96635 1.7958,-7.57763 2.2812,-10.24804 l 0.8828,-4.85547 h -19.1699 -19.1699 l -1.7539,11.25 c -0.9648,6.1875 -2.3612,14.625 -3.1035,18.75 -2.0739,11.52418 -3.5429,20.34742 -5.6582,34 -3.4689,22.38805 -3.7732,24.25728 -7.3399,45 -1.9387,11.275 -3.5273,21.0625 -3.5293,21.75 0,0.95953 4.769,1.25 20.5293,1.25 15.5725,0 20.6146,-0.30191 20.8789,-1.25 0.1918,-0.6875 2.6464,-16.1 5.4551,-34.25 5.7825,-37.36694 5.9966,-38.31669 10.1074,-44.79883 5.5878,-8.81101 15.7294,-13.35329 32.1016,-14.38086 l 9.5742,-0.60156 1.7812,-9.60938 c 0.9802,-5.28529 2.6274,-12.98437 3.6602,-17.10937 2.8849,-11.52244 3.1632,-11.00327 -5.8398,-10.98828 z m -199.2286,0.77734 c -17.1268,-0.24806 -20.1128,-0.0705 -20.4902,1.21094 -0.8408,2.85493 -13.1719,77.64047 -14.0977,85.5 -0.2592,2.2 -0.6901,5.66288 -0.9571,7.69726 -0.7026,5.35519 1.2135,17.29272 3.4668,21.59766 4.0377,7.71391 10.5111,12.94394 19.5567,15.80469 4.8377,1.52997 20.2799,1.76976 27.377,0.42382 7.6985,-1.46 19.5924,-6.74715 25.2617,-11.22851 2.7612,-2.18262 5.2246,-3.7637 5.4746,-3.51367 0.25,0.25002 10e-4,2.42585 -0.5547,4.83594 -0.5556,2.41008 -1.0217,5.63528 -1.0352,7.16796 l -0.023,2.78711 18.002,-0.11914 c 17.6162,-0.11651 18.01,-0.1659 18.4473,-2.28711 1.044,-5.06419 21.3442,-129.18553 21.1601,-129.3789 -0.1114,-0.11696 -9.6208,-0.26473 -21.1328,-0.32813 l -20.9317,-0.11523 -4.2207,25.32812 c -10.3154,61.88886 -11.0739,65.89174 -12.8457,67.84961 -2.0153,2.2269 -11.2664,5.92126 -15.2656,6.09571 l -2.7129,0.11914 3,0.76367 c 2.1815,0.55509 2.426,0.79482 0.8984,0.88086 -1.1554,0.0651 -3.4054,-0.29568 -5,-0.80274 -4.8261,-1.53463 -12.4584,-1.99293 -11.7089,-0.70312 0.093,0.15954 0.1147,0.25768 0.08,0.29492 -0.109,0.0959 -0.6973,-0.28413 -1.5586,-1.03906 -1.1727,-1.02799 -2.0539,-2.15299 -1.9589,-2.5 0.095,-0.34701 -0.4143,-1.68997 -1.1309,-2.98438 -1.2804,-2.31266 -1.1733,-16.65934 0.1504,-20.14648 0.3131,-0.825 1.5136,-7.575 2.668,-15 2.1841,-14.04844 4.0548,-25.54878 6.5039,-40 0.7922,-4.675 1.6975,-10.24051 2.0117,-12.36719 0.3142,-2.12668 0.8052,-4.24536 1.0918,-4.70898 0.2865,-0.46362 -8.4995,-0.97507 -19.5254,-1.13477 z m -646.51758,24.9082 c 5.54866,0.27574 10.83702,1.76783 14.47656,4.4043 4.72794,3.4249 7.01954,8.32633 7.01954,15.01953 v 4.87891 l -24.25,0.1289 c -13.3375,0.0709 -25.375,0.19505 -26.75,0.27735 -1.375,0.0823 -3.2875,-0.008 -4.25,-0.20117 -1.68994,-0.33984 -2.53088,-2.20508 -0.99414,-2.20508 0.41574,0 1.38356,-1.4214 2.15234,-3.15821 1.81799,-4.10712 11.97909,-14.08748 16.55273,-16.25781 4.68426,-2.22282 10.49431,-3.16245 16.04297,-2.88672 z m 331.31641,0.14649 c 7.06458,0.0221 14.3195,2.06784 17.48633,4.93164 2.80222,2.53408 5.47156,8.27343 5.69726,12.24609 0.17478,3.07635 0.71039,4.789 -0.77539,5.75977 h -0.002 l 0.0293,0.21875 h -0.42383 c -2.51544,1.18134 -9.23795,1.0438 -26.41797,1.21875 -15.17154,0.1545 -27.75214,0.11183 -27.95703,-0.0937 -0.90339,-0.9065 4.18616,-8.92649 8.67969,-13.67774 6.66723,-7.04963 14.66747,-10.63171 23.68359,-10.60351 z m 22.01172,23.15625 c 0.1449,-0.068 0.27635,-0.14164 0.39453,-0.21875 l -0.66406,-5.02149 c -1.47162,-11.09365 -8.37006,-16.27858 -21.59375,-16.23437 -6.14419,0.0205 -8.56054,0.52854 -13.125,2.76172 -5.84295,2.85869 -13.47063,10.15351 -16.26368,15.55468 l -1.63281,3.15821 h 26.6543 z m -354.08789,-21.81634 c -6.91209,-0.1995 -13.95735,1.99051 -19.66797,6.4082 -4.28099,3.31174 -12.07617,12.67685 -12.07617,14.50782 0,0.51027 11.52618,0.90039 26.63476,0.90039 h 26.63672 l -0.64648,-4.70703 c -1.01112,-7.37697 -3.58899,-11.47216 -8.90039,-14.13672 -3.73472,-1.87359 -7.83322,-2.85296 -11.98047,-2.97266 z"
       sodipodi:nodetypes="cssccscscccccsscsscccsccscccssccssssccsscscccsccccccccccsccccccsscccccccssssscccccccccscccssssssssscsscccssccccscccccccsssssscccssssssssscccccsssssccssssssccssssssssscccscsssccssssscccsssssccssssssssssssssssssssssccsccccsccssssssssssscsssssssssssssssssssssssssssssssssscsssssssssssscsssssssssssccssscsssssssssssscsssccccsssssssssssscccccsccsssssssssscssssssssssssssssssssccsssssssscsssssssssssssssssssscccsssscccccsssssssssssssssssssssssssssssssssssssccsscccsssssscscsssssssscssscccccccssssccssssssscccccsccccssscccssssssssssssccccssscccsscccssssscssccccssscsssscccssssssssssssccssssccscccssscssssssssssssscsscsssssssccccscssscccssccccssssccss" />
    <rect
       style="fill:#000080;stroke-width:16.2673;stroke:none"
       id="rect29"
       width="1217.5374"
       height="366.47061"
       x="159.23135"
       y="-900.8078"
       transform="scale(1,-1)"
       inkscape:export-filename="ferresur_logo.png"
       inkscape:export-xdpi="96"
       inkscape:export-ydpi="96" />
    <path
       style="fill:#000000;stroke:#ffffff;stroke-width:2.7;stroke-dasharray:none"
       d="m 794.91866,855.8218 c -20.07722,-1.99035 -37.01194,-10.17279 -41.88412,-20.23738 -2.5943,-5.35911 -2.87342,-15.98734 -0.5652,-21.52149 2.05908,-4.9368 7.00189,-9.91511 11.22981,-11.31045 4.343,-1.43332 9.0596,-0.67935 22.21951,3.55189 15.17047,4.87769 21.56985,5.82421 39.5,5.84237 12.51621,0.0127 18.50397,-0.47053 27.5,-2.21923 23.29475,-4.52816 41.50993,-12.24891 51.2885,-21.7393 4.37321,-4.24433 5.7115,-6.95373 5.7115,-11.5631 0,-6.38015 -12.24538,-14.25735 -34.87785,-22.4362 -44.90783,-16.22866 -57.80936,-21.94944 -71.2162,-31.57863 -9.611,-6.9029 -13.99034,-11.64862 -18.01369,-19.52078 -2.78253,-5.44435 -3.25632,-7.51918 -3.65365,-16 -0.3832,-8.17944 -0.10562,-10.78838 1.72835,-16.24445 3.46116,-10.29697 10.38521,-20.49523 21.14641,-31.14603 22.02816,-21.80218 55.1815,-38.311 90.48449,-45.05707 9.87241,-1.88653 15.14231,-2.26559 30.90214,-2.22279 16.47328,0.0447 20.19687,0.35864 27.99999,2.36048 23.1784,5.94626 36.41992,17.14868 39.37952,33.31541 1.9563,10.68652 -1.962,22.71676 -9.15182,28.09806 -7.2466,5.42388 -16.7783,8.16709 -24.1956,6.96344 -3.4492,-0.55974 -3.5322,-0.68153 -3.5377,-5.19234 -0.01,-7.64861 -1.83,-12.22846 -6.86652,-17.27122 -5.04314,-5.04942 -11.08526,-7.42396 -22.59807,-8.88101 -18.83324,-2.3835 -47.07761,3.08691 -63.5298,12.30456 -20.6516,11.57044 -29.92503,21.72563 -29.97804,32.82847 -0.0244,5.1019 3.43902,10.97115 8.63912,14.64038 6.78574,4.78807 21.55421,10.90232 46.83892,19.39163 54.96621,18.45484 74.95159,35.08299 73.15729,60.86803 -1.0262,14.74673 -6.9789,26.34217 -20.37462,39.68834 -12.11873,12.07391 -29.01281,22.26702 -50.92134,30.72361 -28.96302,11.17958 -66.75604,16.49971 -96.36133,13.5648 z m 50,-3.34741 c 15.12131,-2.40197 15.85792,-2.56247 28.82021,-6.27966 42.44928,-12.17316 72.58666,-33.15435 83.28568,-57.98222 3.1708,-7.35805 3.3904,-8.5797 3.3922,-18.86746 0,-9.97395 -0.2451,-11.46639 -2.6462,-16 -2.8114,-5.30853 -11.18711,-14.18594 -12.94946,-13.72522 -0.5781,0.15112 -0.79438,-0.14058 -0.48063,-0.64824 1.10297,-1.78466 -23.57686,-15.66475 -26.11874,-14.68934 -0.77381,0.29694 -1.17255,0.16065 -0.88608,-0.30286 0.63097,-1.02095 -7.01647,-4.05666 -31.41698,-12.47123 -41.0965,-14.17221 -51.44173,-20.51673 -53.39753,-32.74766 -1.65413,-10.34438 6.94661,-21.89083 23.89753,-32.08231 19.43632,-11.68579 37.89074,-16.83266 60.35566,-16.83297 24.71342,-3.4e-4 38.01243,6.8316 41.07233,21.09969 0.5896,2.74922 1.072,6.28242 1.072,7.85155 v 2.85298 l 7.1855,-0.3979 c 7.6993,-0.42636 13.2342,-2.62112 18.0289,-7.14912 1.493,-1.40988 2.436,-3.01409 2.0955,-3.5649 -0.3541,-0.57306 -0.1149,-0.68999 0.5592,-0.27334 2.32452,1.43656 5.60272,-8.19025 5.59132,-16.41913 -0.011,-7.72219 -1.8978,-14.46576 -3.731,-13.33278 -0.6155,0.38044 -0.7368,0.15375 -0.2977,-0.55669 1.3591,-2.19903 -7.49462,-12.80772 -9.60202,-11.5053 -0.4836,0.29889 -0.7556,-0.0525 -0.6045,-0.7809 0.4106,-1.97895 -15.5111,-9.42525 -24.2252,-11.32968 -10.05805,-2.19815 -36.18484,-3.05335 -47.56102,-1.55681 -32.56387,4.28382 -63.99366,16.74537 -87.43897,34.66855 -5.69908,4.35676 -19,16.68791 -19,17.61471 0,0.29014 -1.53263,2.20075 -3.40584,4.24582 -5.27195,5.75563 -11.18523,18.18 -12.57547,26.42226 -2.10678,12.49043 1.41116,25.04645 9.53779,34.04165 5.29883,5.86518 14.14453,12.36341 15.64847,11.4957 0.71228,-0.41095 0.96041,-0.3779 0.55141,0.0734 -2.28896,2.52595 17.23011,11.27202 63.53179,28.4672 26.52218,9.84961 36.84221,16.28641 38.0506,23.73288 2.98976,18.42374 -40.89884,38.19156 -85.33875,38.43734 -18.08697,0.10004 -29.47327,-1.74411 -44,-7.1263 -7.91438,-2.93231 -14.77125,-3.55134 -19.13607,-1.72761 -9.86037,4.11993 -13.71919,20.46228 -7.38412,31.27226 1.70011,2.90103 3.23345,4.40475 4.30754,4.22436 0.92008,-0.15453 1.67783,0.37811 1.69021,1.18807 0.051,3.33671 17.96609,10.41128 30.52244,12.05315 9.38248,1.22685 41.88788,0.37314 53,-1.39199 z m 149.11471,-6.69441 c -10.63322,-1.89041 -18.91142,-8.28057 -24.12162,-18.61991 -1.9786,-3.92635 -2.489,-6.66065 -2.7655,-14.81502 -0.3368,-9.93004 1.5986,-23.38222 12.913,-89.75 l 2.1736,-12.75 h 21.34295 c 16.4092,0 21.3422,0.28896 21.34,1.25 0,0.6875 -0.9044,6.65 -2.0063,13.25 -1.1018,6.6 -4.289,26.38173 -7.0825,43.9594 -4.8402,30.45651 -5.004,32.11674 -3.4835,35.30528 2.2657,4.75107 7.1856,6.59022 16.0702,6.00725 7.5456,-0.4951 16.7087,-4.25454 17.8932,-7.3412 0.3508,-0.91412 4.0106,-21.68386 8.1329,-46.15496 4.1223,-24.4711 7.743,-44.89405 8.046,-45.38434 0.303,-0.49029 10.4244,-0.89143 22.4919,-0.89143 h 21.941 v 2.50851 c 0,1.37968 -1.1065,9.14218 -2.4588,17.25 -1.3523,8.10782 -4.9968,30.26649 -8.0988,49.24149 -3.1021,18.975 -6.8396,41.7 -8.3056,50.5 l -2.6656,16 h -19.4856 -19.4856 l 0.2359,-6.21565 0.2358,-6.21564 -6.2358,3.97547 c -8.7697,5.59086 -19.3296,8.73796 -31.3666,9.348 -5.4281,0.2751 -12.29273,0.0693 -15.25463,-0.45725 z m 24.76233,-1.9116 c 7.6985,-1.46 19.5935,-6.74671 25.2628,-11.22807 2.7612,-2.18262 5.225,-3.76383 5.475,-3.5138 0.25,0.25002 0,2.42648 -0.5557,4.83656 -0.5556,2.41009 -1.0212,5.63599 -1.0347,7.16867 l -0.024,2.78668 18.0016,-0.11907 c 17.6162,-0.11651 18.0112,-0.16547 18.4485,-2.28668 1.044,-5.06419 21.3445,-129.1869 21.1604,-129.38027 -0.1114,-0.11696 -9.6214,-0.26452 -21.1334,-0.32792 l -20.931,-0.11528 -4.2216,25.32793 c -10.3154,61.88886 -11.0735,65.89304 -12.8453,67.85091 -2.0153,2.2269 -11.2675,5.92088 -15.2667,6.09532 l -2.7125,0.11832 3,0.76337 c 2.1815,0.55509 2.4268,0.79565 0.8992,0.88169 -1.1554,0.0651 -3.4054,-0.29655 -5,-0.80361 -4.8261,-1.53463 -12.4586,-1.99301 -11.7091,-0.7032 0.3595,0.61882 -0.3058,0.28404 -1.4785,-0.74395 -1.1727,-1.02799 -2.0545,-2.15299 -1.9595,-2.5 0.095,-0.34701 -0.4136,-1.68999 -1.1302,-2.9844 -1.2804,-2.31266 -1.1735,-16.65939 0.1502,-20.14653 0.3131,-0.825 1.5138,-7.575 2.6682,-15 2.1841,-14.04844 4.0537,-25.54878 6.5028,-40 0.7922,-4.675 1.6976,-10.24001 2.0118,-12.36669 0.3142,-2.12668 0.8057,-4.24602 1.0923,-4.70964 0.2865,-0.46362 -8.5003,-0.97361 -19.5262,-1.13331 -17.12675,-0.24806 -20.11155,-0.0718 -20.48895,1.20964 -0.8408,2.85493 -13.1717,77.64047 -14.0975,85.5 -0.2592,2.2 -0.6896,5.66449 -0.9566,7.69887 -0.7026,5.35519 1.2134,17.29156 3.4667,21.5965 4.0376,7.71391 10.5097,12.94506 19.55532,15.80581 4.8377,1.52997 20.27993,1.76809 27.37703,0.42215 z m -838.45174,0.6426 c -0.28156,-0.73374 2.61788,-10.29624 6.4432,-21.25 19.15123,-54.83935 22.56977,-64.53576 29.93777,-84.91593 8.48693,-23.47515 16.40143,-44.89208 17.63982,-47.734 0.70521,-1.61834 -1.09501,-1.75175 -26.98679,-2 -24.11999,-0.23127 -27.87371,-0.47429 -28.7481,-1.86122 -3.52863,-5.59702 7.09769,-15.46741 20.46121,-19.00565 2.38018,-0.63019 13.5051,-1.42781 24.72205,-1.77247 l 20.39445,-0.62666 3.76639,-9.24608 c 2.07151,-5.08535 3.41138,-9.4655 2.97748,-9.73366 -0.43391,-0.26817 -6.80628,-0.28355 -14.16085,-0.0342 -18.58698,0.63021 -30.7062,-0.30788 -31.86131,-2.46622 -1.20835,-2.25782 2.72562,-10.65753 6.78647,-14.49032 4.62088,-4.36137 9.80675,-5.41231 30.39122,-6.15891 l 18.68831,-0.67782 4.61036,-9.5964 c 6.20027,-12.90578 10.14538,-18.51261 14.9736,-21.28061 3.97368,-2.2781 4.50323,-2.31452 32.53942,-2.23752 24.15066,0.0663 30.86543,0.42528 44,2.3521 17.33737,2.54336 45.09912,8.8748 52.06418,11.87393 8.2477,3.55143 12.16854,11.15531 8.90064,17.26144 -1.00359,1.87522 -2.66264,1.93427 -54.34813,1.93427 h -53.31294 l -1.62418,3.75 c -0.8933,2.0625 -4.29373,10.95 -7.55651,19.75 -3.26278,8.8 -6.24839,16.7875 -6.63468,17.75 -0.66307,1.65211 1.98172,1.75 47.28219,1.75 41.24673,0 48.15783,0.2088 49.21865,1.48701 2.92656,3.52629 -2.25865,10.36354 -11.16251,14.71896 -11.92011,5.83084 -14.08096,6.08631 -56.78849,6.71403 l -39.46179,0.58 -8.80929,24.5 c -23.93751,66.57387 -34.4548,96.01918 -40.00419,112 -3.34232,9.625 -6.7673,18.0625 -7.61107,18.75 -2.29104,1.86671 -46.00818,1.78806 -46.72658,-0.0841 z m 3.94176,-1.91593 c -0.57516,-0.95736 -0.41339,-0.98604 0.69098,-0.1225 2.15975,1.68875 40.36319,1.81098 41.63482,0.1332 0.52554,-0.69338 4.1658,-10.4857 8.08947,-21.7607 3.92367,-11.275 9.20382,-26.125 11.73367,-33 2.52985,-6.875 6.54991,-18.125 8.93347,-25 2.38356,-6.875 8.93462,-25.1 14.55793,-40.5 5.6233,-15.4 10.62933,-29.41216 11.1245,-31.13812 l 0.90033,-3.13813 38.73388,-0.52246 c 41.35352,-0.5578 43.02025,-0.73897 56.33177,-6.12338 7.73118,-3.12721 13.23535,-8.18889 12.73675,-11.71283 l -0.33463,-2.36508 -48.81436,-0.25955 -48.81435,-0.25955 0.67204,-2.24045 c 0.82061,-2.73574 10.53249,-27.87698 14.096,-36.49045 l 2.58571,-6.25 h 52.38748 c 51.05415,0 52.43838,-0.0509 54.38748,-2 2.52587,-2.52587 2.51883,-4.63675 -0.0294,-8.81638 -1.32727,-2.17699 -3.81683,-4.10741 -7.24626,-5.61878 -13.72699,-6.04959 -58.73371,-14.07068 -82.37343,-14.68059 -22.59625,-0.58299 -37.73389,-0.22859 -42.04838,0.98443 -6.18281,1.7383 -9.46092,5.71109 -16.48696,19.98075 l -6.31557,12.8267 -15.5,0.18999 c -8.525,0.10449 -16.9625,0.40236 -18.75,0.66193 -1.7875,0.25957 -4.83462,0.71915 -6.77138,1.02127 -4.27704,0.66721 -9.90882,5.41347 -12.53753,10.56616 -2.35475,4.61569 -2.44662,6.47655 -0.3593,7.27753 0.86998,0.33385 11.66815,0.60699 23.99592,0.60699 h 22.41414 l -2.06925,5.25 c -1.13808,2.8875 -2.76875,7.275 -3.62372,9.75 -2.48132,7.18308 -2.33793,7.12702 -19.42135,7.59273 -21.08853,0.57489 -25.39154,1.01336 -32.99671,3.36236 -6.89724,2.13034 -15.17601,8.2417 -16.13562,11.91125 -1.18162,4.51855 -0.45573,4.63366 29.2209,4.63366 15.41916,0 28.03462,0.35195 28.03437,0.78212 -2.6e-4,0.43016 -0.72238,2.45516 -1.60471,4.5 -2.79195,6.47047 -25.74322,69.85799 -35.56258,98.21788 -2.18998,6.325 -5.5441,16 -7.45361,21.5 -6.39465,18.41867 -7.43425,21.91512 -6.91692,23.26327 0.28294,0.73733 0.1176,1.09534 -0.36743,0.79558 -0.48503,-0.29977 -1.15296,0.53506 -1.48428,1.85516 -0.33133,1.3201 -0.87747,3.11699 -1.21366,3.99309 -0.40845,1.06439 -0.0585,1.5929 1.05475,1.5929 1.06666,0 1.39584,-0.44969 0.91503,-1.25 z m 137.13281,2.30283 c -25.09068,-5.41455 -41.48217,-20.32426 -46.05292,-41.88975 -7.44421,-35.12293 15.33278,-74.37676 51.55305,-88.84644 13.6467,-5.45174 20.40333,-6.58833 36.26286,-6.10008 15.3288,0.4719 23.64058,2.53524 32.31558,8.0221 8.56248,5.4157 16.2242,16.06254 18.86956,26.22144 2.6079,10.01505 1.26757,32.52145 -2.4601,41.30921 l -0.96262,2.26932 -47.0129,-0.26932 -47.01291,-0.26931 2.7e-4,2.5066 c 10e-4,12.75404 10.30088,21.9864 24.50026,21.96167 8.48303,-0.0148 13.92848,-2.22256 19.59255,-7.94351 l 3.98474,-4.02476 h 19.96135 c 16.15797,0 19.96136,0.25898 19.96136,1.35923 0,1.93708 -5.6211,12.28365 -9.75277,17.9516 -7.71347,10.58157 -24.11966,21.72113 -38.06427,25.84509 -7.50522,2.21958 -28.91401,3.35767 -35.68309,1.89691 z m 33.75074,-3.46449 c 13.81292,-3.50394 23.09304,-8.91263 33.75246,-19.67181 5.13531,-5.18337 13.99693,-18.89183 13.99693,-21.6525 0,-0.63464 -6.72739,-0.82001 -18.75,-0.51666 l -18.75,0.4731 -4.62383,4.31182 c -2.54311,2.3715 -6.49664,4.87293 -8.78563,5.55873 -2.83113,0.84823 -3.75074,1.51217 -2.87617,2.07655 0.77452,0.4998 0.093,0.65033 -1.71437,0.37861 -1.65,-0.24807 -5.66443,-0.71041 -8.92096,-1.02743 -13.57111,-1.32115 -22.06921,-9.53154 -22.7903,-22.01875 l -0.28874,-5 47.59479,-0.2596 47.59479,-0.2596 1.85179,-9.7404 c 4.5416,-23.88877 0.74985,-40.3431 -12.00628,-52.10129 -6.10162,-5.62427 -13.45541,-9.07175 -23.98783,-11.24556 -19.08672,-3.93934 -36.74945,-1.34126 -56.11595,8.25433 -9.12755,4.52246 -24.84026,17.34403 -23.9853,19.57201 0.29209,0.76119 0.12574,1.13347 -0.36967,0.82729 -1.22915,-0.75966 -7.37807,7.1556 -6.57199,8.45986 0.35437,0.57338 0.12548,0.91886 -0.50864,0.76774 -1.51475,-0.36101 -6.61002,8.9236 -9.72737,17.72522 -1.88313,5.3169 -2.60109,9.7651 -2.98597,18.5 -0.6022,13.66692 0.54823,20.76381 4.81519,29.70443 3.37867,7.07935 12.9886,17.97839 14.84199,16.83293 0.6105,-0.37731 0.98635,-0.15173 0.83523,0.50128 -0.43099,1.86227 11.83956,8.15272 19.65129,10.07416 10.90216,2.68159 27.04557,2.46352 38.82454,-0.52446 z m -31.50061,-80.38307 c -1.68994,-0.33984 -2.53085,-2.20527 -0.99411,-2.20527 0.41574,0 1.3849,-1.42103 2.15368,-3.15784 1.81799,-4.10712 11.9795,-14.08711 16.55314,-16.25744 9.36852,-4.44565 23.23936,-3.75635 30.51845,1.51659 4.72793,3.4249 7.01884,8.32761 7.01884,15.02081 v 4.87788 l -24.25,0.12895 c -13.3375,0.0709 -25.375,0.19629 -26.75,0.27859 -1.375,0.0823 -3.2875,-0.009 -4.25,-0.20227 z m 53.87673,-5.9119 c -1.01112,-7.37697 -3.58889,-11.47103 -8.90029,-14.13559 -9.95923,-4.99623 -22.51203,-3.63416 -31.64903,3.43415 -4.28099,3.31174 -12.07741,12.67751 -12.07741,14.50848 0,0.51027 11.52734,0.89959 26.63592,0.89959 h 26.63593 z m 32.80448,89.38796 c -0.27831,-0.72526 0.64805,-8.03776 2.05858,-16.25 1.41053,-8.21223 4.15707,-24.15633 6.10342,-35.43133 1.94635,-11.275 4.85286,-28.15 6.45891,-37.5 1.60605,-9.35 3.35881,-19.475 3.89502,-22.5 0.53622,-3.025 1.50225,-8.65 2.14675,-12.5 1.89928,-11.34572 0.0917,-10.5 22.44129,-10.5 22.20121,0 20.3866,-1.01009 17.96482,10 -1.98432,9.02127 -2.00007,8.9999 2.75,3.73131 8.58549,-9.52269 22.91814,-15.18535 36.78802,-14.53453 6.31364,0.29626 6.46961,0.37013 6.7943,3.21798 0.3528,3.09435 -6.58698,35.30991 -8.01397,37.20212 -0.46421,0.61556 -5.2133,1.35703 -10.58031,1.6519 -12.87163,0.70719 -18.40456,2.76731 -24.91344,9.27618 -6.65335,6.65336 -6.9105,7.58143 -13.79746,49.79544 -3.03647,18.61222 -5.77382,34.24972 -6.08301,34.75 -0.30929,0.50044 -10.22104,0.9096 -22.03453,0.9096 -16.85175,0 -21.58126,-0.28376 -21.97839,-1.31867 z m 48.75109,-36.077 c 3.16456,-19.19262 6.46053,-37.02363 7.32439,-39.62447 1.86512,-5.61534 8.66543,-12.92046 14.7642,-15.86018 4.8896,-2.35688 17.18368,-4.47713 22.83514,-3.93818 l 3.88236,0.37024 1.45465,-5.02587 c 0.80006,-2.76423 2.81216,-11.10087 4.47134,-18.52587 3.84031,-17.18582 3.86144,-17.15733 -11.11732,-14.99092 -7.98871,1.15542 -15.04699,3.77751 -14.13607,5.25141 0.38396,0.62126 0.16539,0.75024 -0.53638,0.31652 -2.60737,-1.61144 -14.20412,7.8678 -18.4243,15.06011 -0.43983,0.74958 -1.21608,1.36288 -1.725,1.36288 -0.93343,0 -0.49541,-3.97248 1.0475,-9.5 0.46056,-1.65 1.1334,-4.9125 1.49519,-7.25 l 0.6578,-4.25 h -18.41505 -18.41505 l -1.112,6.25 c -0.61161,3.4375 -2.73786,15.7 -4.72501,27.25 -6.68355,38.84709 -13.65416,78.92743 -15.43842,88.76945 l -1.77111,9.76945 21.06471,-0.26945 21.0647,-0.26945 z m 49.23304,36.03565 c -0.28704,-0.74801 1.05655,-10.53551 2.98574,-21.75 1.92919,-11.21449 6.92353,-40.41498 11.09853,-64.88998 4.175,-24.475 7.82586,-45.2875 8.11304,-46.25 0.47393,-1.58848 2.31025,-1.75 19.89572,-1.75 10.65548,0 19.56928,0.3375 19.80844,0.75 0.46437,0.80092 -1.53226,13.2841 -2.71023,16.94469 -0.47173,1.46593 1.31002,0.22177 5.36583,-3.74683 10.13577,-9.91785 22.66639,-14.94786 37.23769,-14.94786 h 7.7899 v 2.97357 c 0,3.57583 -7.71993,37.16787 -8.76532,38.14087 -0.40407,0.3761 -5.23468,0.90482 -10.73468,1.17494 -11.51355,0.56546 -12.49994,0.76024 -18.76592,3.70559 -6.37912,2.99854 -12.24785,9.62861 -14.12846,15.96132 -0.84055,2.83043 -3.82567,19.86066 -6.63362,37.84497 -2.80794,17.98431 -5.5157,33.71124 -6.01724,34.94874 -0.90602,2.23553 -1.05049,2.25 -22.46471,2.25 -17.24963,0 -21.65702,-0.27154 -22.07471,-1.36002 z m 43.72018,-4.63998 c 0.39006,-1.925 1.85205,-10.7 3.24884,-19.5 6.17574,-38.9079 7.90123,-48.25899 9.63824,-52.23334 5.46613,-12.50674 14.89384,-17.73712 34.4774,-19.12763 l 9,-0.63903 2.69751,-11.5 c 1.48363,-6.325 3.44075,-14.56788 4.34915,-18.31752 0.9084,-3.74963 1.34363,-7.12463 0.96718,-7.5 -1.412,-1.40793 -15.72521,-0.31308 -22.39606,1.71313 -7.59744,2.30765 -16.60541,7.77753 -16.64022,10.10439 -0.0124,0.82702 -0.75642,1.37761 -1.6584,1.2272 -1.90239,-0.31723 -8.01844,6.64135 -7.1179,8.09844 0.33426,0.54086 0.11932,0.68151 -0.47765,0.31256 -0.59698,-0.36895 -1.36807,-0.21348 -1.71353,0.34549 -1.2753,2.06349 -2.45619,1.00476 -1.54689,-1.38688 0.50253,-1.32175 1.40166,-5.25925 1.99806,-8.75 0.5964,-3.49074 1.30767,-7.35931 1.58061,-8.59681 l 0.49624,-2.25 h -18.39405 -18.39405 l -0.66745,3.25 c -1.01031,4.91942 -4.06415,22.59713 -10.58099,61.25 -3.24553,19.25 -7.0486,41.71764 -8.45126,49.92809 -1.40267,8.21044 -2.5503,15.53207 -2.5503,16.27028 0,1.08844 3.91617,1.2911 20.71315,1.07192 l 20.71315,-0.27029 z m 100.36448,5.04351 c -12.50821,-2.71554 -26.25949,-10.55252 -32.88523,-18.74157 -18.6363,-23.03345 -15.84949,-57.99427 6.8655,-86.12827 12.63399,-15.64802 28.79452,-26.0135 47.18102,-30.26224 12.54495,-2.89887 32.20503,-2.38687 42.33871,1.10261 18.11099,6.23643 29.90913,19.23582 33.11438,36.48596 1.88715,10.15637 -0.74937,32.41379 -4.41248,37.25 -0.73377,0.96876 -11.49392,1.25 -47.82434,1.25 h -46.87756 v 3.5109 c 0,7.95701 6.94097,16.95641 14.92228,19.34767 4.72993,1.41712 13.37405,1.46457 18.28594,0.10039 2.03952,-0.56645 6.15262,-3.26394 9.14021,-5.99443 l 5.43199,-4.96453 h 19.74063 19.74063 l -0.57617,3.55056 c -1.16224,7.16205 -11.09654,20.57089 -20.73569,27.98805 -7.27312,5.59654 -18.76491,11.78229 -25.94982,13.96815 -6.3169,1.92179 -31.0566,2.93562 -37.5,1.53675 z m 41.32441,-4.84684 c 11.51368,-4.30327 23.76755,-12.68601 30.66259,-20.97594 5.42815,-6.52628 12.05175,-18.01531 10.99521,-19.07185 -0.28733,-0.28733 -8.81929,-0.44561 -18.95991,-0.35174 l -18.43749,0.17068 -4.2924,4.28663 c -9.28543,9.27293 -26.31469,10.3763 -36.28244,2.35084 -5.32456,-4.28704 -8.50908,-10.354 -8.7808,-16.72868 l -0.22917,-5.37661 46.96002,-0.26002 c 25.82802,-0.14302 47.34476,-0.64476 47.81499,-1.11499 0.47023,-0.47023 1.71801,-4.17822 2.77284,-8.23998 2.59424,-9.98945 2.61338,-24.58229 0.0431,-32.84073 -4.79699,-15.41263 -17.84328,-26.66253 -36.09095,-31.12143 -8.69789,-2.12537 -28.8779,-1.65219 -38.27242,0.89742 -9.09312,2.4678 -23.33323,9.24092 -22.98958,10.93469 0.13091,0.64519 -0.34267,0.95024 -1.05239,0.67789 -2.42057,-0.92886 -19.36548,14.65809 -18.12214,16.66984 0.45081,0.72944 0.32478,0.94628 -0.31882,0.54851 -1.21716,-0.75225 -8.71669,9.36096 -12.49436,16.8488 -9.24058,18.31605 -10.16842,41.00531 -2.37181,58 4.27256,9.31312 18.68592,22.47551 25.02822,22.85595 1.32076,0.0792 2.20364,0.46435 1.96195,0.85583 -0.24169,0.39147 2.16399,1.43668 5.34596,2.32268 3.18196,0.88601 6.23539,1.79445 6.78539,2.01877 0.55,0.22432 7.975,0.2609 16.5,0.0813 14.4761,-0.30499 16.0499,-0.53209 23.82441,-3.43784 z m -37.36618,-79.07049 c -0.90339,-0.9065 4.1863,-8.92739 8.67983,-13.67864 6.66724,-7.04963 14.66748,-10.63132 23.6836,-10.60312 7.06458,0.0221 14.31827,2.06811 17.4851,4.93191 2.80222,2.53408 5.47254,8.27238 5.69824,12.24504 0.42985,7.56592 3.0366,6.88586 -27.58962,7.19773 -15.17154,0.1545 -27.75226,0.11268 -27.95715,-0.0929 z m 54.10445,-6.36517 c -1.47162,-11.09365 -8.36932,-16.28004 -21.59301,-16.23583 -6.14419,0.0205 -8.56008,0.52898 -13.12454,2.76216 -5.84295,2.85869 -13.47079,10.15429 -16.26384,15.55546 l -1.63265,3.1572 h 26.65451 26.65451 z m 392.98206,90.31137 c -0.5971,-0.96618 20.9594,-132.46096 21.9877,-134.12474 0.3372,-0.54572 9.0642,-0.94764 20.5763,-0.94764 h 19.9906 l -0.6894,6.25 c -0.3792,3.4375 -1.0766,7.29179 -1.5497,8.5651 -1.5148,4.07675 -0.9677,3.90224 4.5644,-1.45605 6.2806,-6.08319 14.3261,-10.41534 23.6393,-12.72865 8.023,-1.99283 18.2543,-2.15685 19.7811,-0.31712 0.8024,0.96675 0.1748,5.65039 -2.3784,17.75 -1.9076,9.0402 -3.8209,17.78672 -4.2518,19.43672 l -0.7835,3 -10.9657,0.64269 c -6.0311,0.35348 -12.8342,1.33051 -15.1179,2.17118 -9.191,3.38324 -15.3395,9.3424 -18.1945,17.6341 -1.173,3.40685 -4.8604,25.01128 -9.732,57.0193 -1.3929,9.15175 -3.0427,16.80819 -3.7137,17.23468 -1.742,1.10715 -42.474,0.98487 -43.1628,-0.12957 z m 42.8666,-2.32238 c 0.1918,-0.6875 2.6466,-16.1 5.4553,-34.25 5.7825,-37.36694 5.9966,-38.31586 10.1074,-44.798 5.5878,-8.81101 15.7284,-13.35425 32.1006,-14.38182 l 9.5746,-0.60093 1.7823,-9.60963 c 0.9802,-5.28529 2.6272,-12.98462 3.66,-17.10962 2.8849,-11.52244 3.1615,-11.00209 -5.8415,-10.9871 -14.3327,0.0239 -25.7865,5.05341 -35.9779,15.79849 -3.4253,3.61142 -6.4259,6.36816 -6.668,6.12607 -0.2421,-0.24208 0.1894,-2.86717 0.9589,-5.83353 0.7695,-2.96635 1.7961,-7.57824 2.2815,-10.24865 l 0.8825,-4.85528 h -19.1697 -19.1696 l -1.7542,11.25 c -0.9648,6.1875 -2.3616,14.625 -3.1039,18.75 -2.0739,11.52418 -3.542,20.34742 -5.6573,34 -3.4688,22.38805 -3.7737,24.25728 -7.3404,45 -1.9387,11.275 -3.5264,21.0625 -3.5284,21.75 0,0.95953 4.7676,1.25 20.5279,1.25 15.5725,0 20.6156,-0.30191 20.8799,-1.25 z m 141.004,1.88985 c -0.2871,-0.74809 -0.053,-6.71059 0.5211,-13.25 1.327,-15.12782 1.3355,-33.37308 0.021,-44.84933 -6.1532,-53.71425 -34.2501,-93.99098 -82.9572,-118.91878 -16.0173,-8.1975 -24.9547,-11.32393 -43.8428,-15.33689 -11.6843,-2.48245 -14.4636,-2.68948 -36.1572,-2.69343 -20.4824,-0.004 -24.9736,0.28941 -34.976,2.28278 -29.3348,5.8461 -54.7115,18.2355 -71.7185,35.01437 l -6.1946,6.11143 -15.30543,0.0307 c -42.07222,0.0845 -68.1757,-0.14148 -68.91187,-0.59646 -1.34363,-0.8304 0.84607,-5.28831 7.64971,-15.57366 l 6.43843,-9.73327 20.75911,0.56126 20.7591,0.56126 9.79452,-8.36092 9.79443,-8.36092 -0.094,-13.514 c -0.052,-7.43271 -0.072,-16.32266 -0.044,-19.75546 l 0.05,-6.24145 5.25,-3.0746 c 2.8875,-1.69103 7.5,-4.46155 10.25,-6.1567 6.6345,-4.08964 22.836,-12.46193 28.6435,-14.80176 l 4.6434,-1.87086 4.8566,3.05411 c 2.6711,1.67976 9.6113,6.58965 15.4228,10.91086 l 10.5663,7.85676 9.9337,-1.99883 c 5.4635,-1.09936 10.8846,-2.07776 12.0467,-2.17423 1.7285,-0.14347 2.9904,-2.40593 6.9335,-12.43063 2.7864,-7.08416 5.4405,-12.37675 6.2901,-12.54322 2.7051,-0.53006 30.0004,0.99323 31.2117,1.74184 0.6575,0.40634 3.5801,5.8141 6.4948,12.01724 l 5.2994,11.27844 5.8288,1.12011 c 3.2058,0.61606 8.6212,1.78032 12.0342,2.58724 8.5883,2.03048 9.149,1.9434 14.7945,-2.29755 11.0151,-8.27549 15.5887,-11.2353 17.3604,-11.2353 1.7673,0 8.8197,3.00027 24.8885,10.58812 l 7.25,3.42353 v 12.40228 12.40228 l 8.25,5.40536 c 4.5375,2.97294 8.854,5.76648 9.5921,6.20785 0.7735,0.46249 7.0738,-0.60441 14.8701,-2.51813 l 13.5279,-3.32063 3.9388,4.45467 c 6.2907,7.11466 19.6742,23.81161 20.8556,26.01909 0.8951,1.67248 0.2794,3.49143 -3.5756,10.5634 l -4.6568,8.54302 2.6827,3.66458 c 1.4755,2.01552 4.2311,5.9478 6.1236,8.7384 l 3.4408,5.07382 8.2254,1.3038 c 9.8016,1.55365 14.2727,3.24211 17.9746,6.78788 3.2376,3.10116 7.9232,14.74192 11.3136,28.10726 l 2.4206,9.54217 -2.2417,2.43876 c -1.2329,1.34132 -4.7041,4.74135 -7.7137,7.55563 -12.3169,11.51742 -11.028,8.8402 -11.028,22.90641 v 12.4434 l 9.75,7.93434 c 8.4483,6.87507 9.7399,8.32806 9.674,10.88352 -0.073,2.8387 -3.9866,25.10618 -5.0438,28.69919 -0.4763,1.61868 -2.8761,1.75 -31.979,1.75 -25.6077,0 -31.5611,-0.25316 -31.9859,-1.36015 z m 63.0997,-4.38985 c 0.333,-2.0625 1.0014,-5.775 1.4852,-8.25 0.4838,-2.475 1.4443,-7.5632 2.1345,-11.3071 l 1.2549,-6.8071 -2.9448,-2.46402 c -1.6196,-1.3552 -5.6448,-4.57631 -8.9448,-7.15802 -9.0431,-7.07469 -8.6394,-6.01663 -7.9216,-20.76376 l 0.6327,-13 9.973,-9.5 9.973,-9.5 -2.0199,-8.5 c -2.3238,-9.77885 -6.3884,-21.02513 -9.3178,-25.78109 -2.7847,-4.52114 -8.5272,-7.16772 -18.504,-8.52817 l -8.4589,-1.15346 -7.0032,-9.74127 -7.0031,-9.74127 4.6613,-8.27737 4.6613,-8.27737 -1.7721,-3.30245 c -1.6723,-3.11646 -14.0317,-18.45132 -19.7038,-24.44755 -1.4308,-1.5125 -3.1948,-2.75 -3.92,-2.75 -0.7252,0 -6.6737,1.30632 -13.2189,2.90293 -6.5452,1.59661 -12.6108,2.64313 -13.4792,2.3256 -0.8683,-0.31754 -4.821,-2.74885 -8.7836,-5.40293 -3.9627,-2.65408 -7.6271,-4.8256 -8.1431,-4.8256 -1.7816,0 -2.3095,-3.54205 -2.2488,-15.08859 l 0.061,-11.58858 -14.2321,-6.67722 c -7.8276,-3.67246 -15.0927,-6.6701 -16.1446,-6.66141 -2.4407,0.0202 -11.7477,5.94752 -11.0673,7.04846 0.2818,0.45603 -0.014,1.15477 -0.6584,1.55275 -0.7312,0.45192 -0.9029,0.29014 -0.4573,-0.4309 0.3924,-0.63498 0.391,-1.15451 0,-1.15451 -0.8568,0 -11.5855,8.06385 -12.6361,9.49747 -0.4608,0.62883 -0.7404,0.55095 -0.75,-0.20893 -0.018,-1.43754 -5.2645,-3.00045 -17.4119,-5.18708 -5.5259,-0.99469 -9.2124,-2.16979 -9.7299,-3.10146 -0.4582,-0.825 -2.9129,-6.07142 -5.4549,-11.6587 l -4.6217,-10.15871 -6.6484,-0.58055 c -3.6567,-0.31931 -10.677,-0.69789 -15.6007,-0.8413 l -8.9523,-0.26074 -4.7129,11.98852 -4.7129,11.98852 -12.8348,2.67611 -12.8349,2.67612 -9.4927,-7.16463 c -5.221,-3.94055 -12.0548,-8.82379 -15.1863,-10.85163 -5.2777,-3.41772 -5.972,-3.61147 -9.5073,-2.65283 -2.0975,0.56879 -5.1637,1.82686 -6.8137,2.79572 -1.65,0.96886 -7.3547,4.06646 -12.6772,6.88355 -9.364,4.95623 -13.0519,7.16319 -21.159,12.66219 l -3.8362,2.60207 0.227,18.19815 c 0.1248,10.00898 0.1636,18.67335 0.086,19.25415 -0.077,0.58081 -4.27593,4.63081 -9.33003,9 l -9.18922,7.94399 -21.478,0.5 -21.47796,0.5 -3.27083,4.5 c -4.29481,5.90453 -10.3978,15.90597 -10.3978,17.0346 0,0.50616 17.49108,0.9134 40.48039,0.9425 l 40.48045,0.0512 7.2343,-6.6389 c 9.923,-9.10628 19.2825,-15.49555 31.2129,-21.3073 28.2064,-13.74042 58.4084,-18.9616 92.592,-16.00686 7.975,0.68934 15.85,1.2919 17.5,1.33903 1.65,0.0471 3.225,0.34528 3.5,0.66256 0.275,0.31729 5.45,1.86263 11.5,3.4341 42.3918,11.01114 79.9295,40.20358 99.7256,77.55489 13.6673,25.78739 19.0801,55.63337 16.8588,92.95901 -0.5418,9.10394 -1.2805,17.32269 -1.6417,18.26388 -0.6111,1.59237 1.5012,1.71125 30.405,1.71125 h 31.0617 z"
       id="path29" />
  </g>
</svg>
